STARTFONT 2.1
COMMENT /*
COMMENT  * Spleen 32x64
COMMENT  * Copyright (c) 2018, Frederic Cambus
COMMENT  * https://www.cambus.net/
COMMENT  *
COMMENT  * Created:      2018-09-11
COMMENT  * Last Updated: 2018-09-13
COMMENT  *
COMMENT  * Spleen is released under the BSD 2-Clause license.
COMMENT  * See LICENSE file for details.
COMMENT  */
FONT "-misc-spleen-medium-r-normal--32-320-72-72-C-160-iso10646-1"
SIZE 44 75 75
FONTBOUNDINGBOX 32 64 0 -12
STARTPROPERTIES 17
FAMILY_NAME "Spleen"
FOUNDRY "misc"
SLANT "R"
SETWIDTH_NAME "Normal"
PIXEL_SIZE 64
POINT_SIZE 640
RESOLUTION_X 72
RESOLUTION_Y 72
SPACING "C"
AVERAGE_WIDTH 320
CHARSET_REGISTRY "ISO10646"
CHARSET_ENCODING "1"
FONT_ASCENT 52
FONT_DESCENT 12
COPYRIGHT "Copyright (c) 2018, Frederic Cambus"
DEFAULT_CHAR 0
_GBDFED_INFO "Edited with gbdfed 1.6."
ENDPROPERTIES
CHARS 192
STARTCHAR 0x0020
ENCODING 32
SWIDTH 698 0
DWIDTH 32 0
BBX 32 64 0 -12
BITMAP
00000000
00000000
00000000
00000000
00000000
00000000
00000000
00000000
00000000
00000000
00000000
00000000
00000000
00000000
00000000
00000000
00000000
00000000
00000000
00000000
00000000
00000000
00000000
00000000
00000000
00000000
00000000
00000000
00000000
00000000
00000000
00000000
00000000
00000000
00000000
00000000
00000000
00000000
00000000
00000000
00000000
00000000
00000000
00000000
00000000
00000000
00000000
00000000
00000000
00000000
00000000
00000000
00000000
00000000
00000000
00000000
00000000
00000000
00000000
00000000
00000000
00000000
00000000
00000000
ENDCHAR
STARTCHAR 0x0021
ENCODING 33
SWIDTH 698 0
DWIDTH 32 0
BBX 32 64 0 -12
BITMAP
00000000
00000000
00000000
00000000
00000000
00000000
00000000
00000000
00000000
00000000
00000000
00000000
0003C000
0003C000
0003C000
0003C000
0003C000
0003C000
0003C000
0003C000
0003C000
0003C000
0003C000
0003C000
0003C000
0003C000
0003C000
0003C000
0003C000
0003C000
0003C000
0003C000
0003C000
0003C000
0003C000
0003C000
0003C000
0003C000
0003C000
0003C000
00000000
00000000
00000000
00000000
00000000
00000000
0003C000
0003C000
0003C000
0003C000
0003C000
0003C000
00000000
00000000
00000000
00000000
00000000
00000000
00000000
00000000
00000000
00000000
00000000
00000000
ENDCHAR
STARTCHAR 0x0022
ENCODING 34
SWIDTH 698 0
DWIDTH 32 0
BBX 32 64 0 -12
BITMAP
00000000
00000000
00000000
00000000
00000000
00000000
00000000
00000000
03C003C0
03C003C0
03C003C0
03C003C0
03C003C0
03C003C0
03C003C0
03C003C0
03C003C0
03C003C0
03C003C0
03C003C0
03C003C0
03C003C0
03C003C0
03C003C0
00000000
00000000
00000000
00000000
00000000
00000000
00000000
00000000
00000000
00000000
00000000
00000000
00000000
00000000
00000000
00000000
00000000
00000000
00000000
00000000
00000000
00000000
00000000
00000000
00000000
00000000
00000000
00000000
00000000
00000000
00000000
00000000
00000000
00000000
00000000
00000000
00000000
00000000
00000000
00000000
ENDCHAR
STARTCHAR 0x0023
ENCODING 35
SWIDTH 698 0
DWIDTH 32 0
BBX 32 64 0 -12
BITMAP
00000000
00000000
00000000
00000000
00000000
00000000
00000000
00000000
00000000
00000000
00000000
00000000
03C003C0
03C003C0
03C003C0
03C003C0
03C003C0
03C003C0
03C003C0
03C003C0
3FFFFFFC
3FFFFFFC
3FFFFFFC
3FFFFFFC
03C003C0
03C003C0
03C003C0
03C003C0
03C003C0
03C003C0
03C003C0
03C003C0
03C003C0
03C003C0
03C003C0
03C003C0
03C003C0
03C003C0
03C003C0
03C003C0
3FFFFFFC
3FFFFFFC
3FFFFFFC
3FFFFFFC
03C003C0
03C003C0
03C003C0
03C003C0
03C003C0
03C003C0
03C003C0
03C003C0
00000000
00000000
00000000
00000000
00000000
00000000
00000000
00000000
00000000
00000000
00000000
00000000
ENDCHAR
STARTCHAR 0x0024
ENCODING 36
SWIDTH 698 0
DWIDTH 32 0
BBX 32 64 0 -12
BITMAP
00000000
00000000
00000000
00000000
00000000
00000000
00000000
00000000
0003C000
0003C000
0003C000
0003C000
00FFFFF0
01FFFFF0
03FFFFF0
07FFFFF0
0FC3C000
0F83C000
0F03C000
0F03C000
0F03C000
0F03C000
0F03C000
0F03C000
0F03C000
0F03C000
0F83C000
0FC3C000
07FFFF00
03FFFF80
01FFFFC0
00FFFFE0
0003C3F0
0003C1F0
0003C0F0
0003C0F0
0003C0F0
0003C0F0
0003C0F0
0003C0F0
0003C0F0
0003C0F0
0003C0F0
0003C0F0
0003C0F0
0003C0F0
0003C1F0
0003C3F0
0FFFFFE0
0FFFFFC0
0FFFFF80
0FFFFF00
0003C000
0003C000
0003C000
0003C000
00000000
00000000
00000000
00000000
00000000
00000000
00000000
00000000
ENDCHAR
STARTCHAR 0x0025
ENCODING 37
SWIDTH 698 0
DWIDTH 32 0
BBX 32 64 0 -12
BITMAP
00000000
00000000
00000000
00000000
00000000
00000000
00000000
00000000
00000000
00000000
00000000
00000000
000000F0
000000F0
000001F0
000001F0
00F003E0
01F803E0
03FC07C0
03FC07C0
03FC0F80
03FC0F80
01F81F00
00F01F00
00003E00
00003E00
00007C00
00007C00
0000F800
0000F800
0001F000
0001F000
0003E000
0003E000
0007C000
0007C000
000F8000
000F8000
001F0000
001F0000
003E03C0
003E07E0
007C0FF0
007C0FF0
00F80FF0
00F80FF0
01F007E0
01F003C0
03E00000
03E00000
03C00000
03C00000
00000000
00000000
00000000
00000000
00000000
00000000
00000000
00000000
00000000
00000000
00000000
00000000
ENDCHAR
STARTCHAR 0x0026
ENCODING 38
SWIDTH 698 0
DWIDTH 32 0
BBX 32 64 0 -12
BITMAP
00000000
00000000
00000000
00000000
00000000
00000000
00000000
00000000
00000000
00000000
00000000
00000000
003FFC00
007FFE00
00FFFF00
01FFFF80
03F00FC0
03E007C0
03C003C0
03C003C0
03C003C0
03C003C0
03C003C0
03C003C0
03C003C0
03C003C0
03E007C0
03F00FC0
01FFFF80
00FFFF00
007FFE00
003FFC00
03FFC000
07FFC000
0FFFE000
1FFFF000
3F00F870
3E007CF0
3C003FF0
3C001FE0
3C000FC0
3C000F80
3C000F00
3C000F00
3C000F80
3C000FC0
3E001FE0
3F003FF0
1FFFFCF8
0FFFFC7C
07FFF83C
03FFF01C
00000000
00000000
00000000
00000000
00000000
00000000
00000000
00000000
00000000
00000000
00000000
00000000
ENDCHAR
STARTCHAR 0x0027
ENCODING 39
SWIDTH 698 0
DWIDTH 32 0
BBX 32 64 0 -12
BITMAP
00000000
00000000
00000000
00000000
00000000
00000000
00000000
00000000
0003C000
0003C000
0003C000
0003C000
0003C000
0003C000
0003C000
0003C000
0003C000
0003C000
0003C000
0003C000
0003C000
0003C000
0003C000
0003C000
00000000
00000000
00000000
00000000
00000000
00000000
00000000
00000000
00000000
00000000
00000000
00000000
00000000
00000000
00000000
00000000
00000000
00000000
00000000
00000000
00000000
00000000
00000000
00000000
00000000
00000000
00000000
00000000
00000000
00000000
00000000
00000000
00000000
00000000
00000000
00000000
00000000
00000000
00000000
00000000
ENDCHAR
STARTCHAR 0x0028
ENCODING 40
SWIDTH 698 0
DWIDTH 32 0
BBX 32 64 0 -12
BITMAP
00000000
00000000
00000000
00000000
00000000
00000000
00000FF0
00003FF0
0000FFF0
0001FFF0
0003FC00
0007F000
000FC000
001F8000
003F0000
003E0000
007C0000
007C0000
00F80000
00F80000
01F00000
01F00000
01E00000
01E00000
03C00000
03C00000
03C00000
03C00000
03C00000
03C00000
03C00000
03C00000
03C00000
03C00000
03C00000
03C00000
03C00000
03C00000
03C00000
03C00000
01E00000
01E00000
01F00000
01F00000
00F80000
00F80000
007C0000
007C0000
003E0000
003F0000
001F8000
000FC000
0007F000
0003FC00
0001FFF0
0000FFF0
00003FF0
00000FF0
00000000
00000000
00000000
00000000
00000000
00000000
ENDCHAR
STARTCHAR 0x0029
ENCODING 41
SWIDTH 698 0
DWIDTH 32 0
BBX 32 64 0 -12
BITMAP
00000000
00000000
00000000
00000000
00000000
00000000
0FF00000
0FFC0000
0FFF0000
0FFF8000
003FC000
000FE000
0003F000
0001F800
0000FC00
00007C00
00003E00
00003E00
00001F00
00001F00
00000F80
00000F80
00000780
00000780
000003C0
000003C0
000003C0
000003C0
000003C0
000003C0
000003C0
000003C0
000003C0
000003C0
000003C0
000003C0
000003C0
000003C0
000003C0
000003C0
00000780
00000780
00000F80
00000F80
00001F00
00001F00
00003E00
00003E00
00007C00
0000FC00
0001F800
0003F000
000FE000
003FC000
0FFF8000
0FFF0000
0FFC0000
0FF00000
00000000
00000000
00000000
00000000
00000000
00000000
ENDCHAR
STARTCHAR 0x002A
ENCODING 42
SWIDTH 698 0
DWIDTH 32 0
BBX 32 64 0 -12
BITMAP
00000000
00000000
00000000
00000000
00000000
00000000
00000000
00000000
00000000
00000000
00000000
00000000
00000000
00000000
00000000
00000000
00000000
00000000
00000000
00000000
03C003C0
03C003C0
03E007C0
03F00FC0
01F81F80
00FC3F00
007E7E00
003FFC00
001FF800
000FF000
000FF000
000FF000
3FFFFFFC
3FFFFFFC
3FFFFFFC
3FFFFFFC
000FF000
000FF000
000FF000
001FF800
003FFC00
007E7E00
00FC3F00
01F81F80
03F00FC0
03E007C0
03C003C0
03C003C0
00000000
00000000
00000000
00000000
00000000
00000000
00000000
00000000
00000000
00000000
00000000
00000000
00000000
00000000
00000000
00000000
ENDCHAR
STARTCHAR 0x002B
ENCODING 43
SWIDTH 698 0
DWIDTH 32 0
BBX 32 64 0 -12
BITMAP
00000000
00000000
00000000
00000000
00000000
00000000
00000000
00000000
00000000
00000000
00000000
00000000
00000000
00000000
00000000
00000000
00000000
00000000
00000000
00000000
00000000
00000000
00000000
00000000
0003C000
0003C000
0003C000
0003C000
0003C000
0003C000
0003C000
0003C000
03FFFFC0
03FFFFC0
03FFFFC0
03FFFFC0
0003C000
0003C000
0003C000
0003C000
0003C000
0003C000
0003C000
0003C000
00000000
00000000
00000000
00000000
00000000
00000000
00000000
00000000
00000000
00000000
00000000
00000000
00000000
00000000
00000000
00000000
00000000
00000000
00000000
00000000
ENDCHAR
STARTCHAR 0x002C
ENCODING 44
SWIDTH 698 0
DWIDTH 32 0
BBX 32 64 0 -12
BITMAP
00000000
00000000
00000000
00000000
00000000
00000000
00000000
00000000
00000000
00000000
00000000
00000000
00000000
00000000
00000000
00000000
00000000
00000000
00000000
00000000
00000000
00000000
00000000
00000000
00000000
00000000
00000000
00000000
00000000
00000000
00000000
00000000
00000000
00000000
00000000
00000000
00000000
00000000
00000000
00000000
00000000
00000000
00000000
00000000
0003C000
0003C000
0003C000
0003C000
0003C000
0003C000
0007C000
000FC000
003F8000
003F0000
003E0000
003C0000
00000000
00000000
00000000
00000000
00000000
00000000
00000000
00000000
ENDCHAR
STARTCHAR 0x002D
ENCODING 45
SWIDTH 698 0
DWIDTH 32 0
BBX 32 64 0 -12
BITMAP
00000000
00000000
00000000
00000000
00000000
00000000
00000000
00000000
00000000
00000000
00000000
00000000
00000000
00000000
00000000
00000000
00000000
00000000
00000000
00000000
00000000
00000000
00000000
00000000
00000000
00000000
00000000
00000000
00000000
00000000
00000000
00000000
0FFFFFF0
0FFFFFF0
0FFFFFF0
0FFFFFF0
00000000
00000000
00000000
00000000
00000000
00000000
00000000
00000000
00000000
00000000
00000000
00000000
00000000
00000000
00000000
00000000
00000000
00000000
00000000
00000000
00000000
00000000
00000000
00000000
00000000
00000000
00000000
00000000
ENDCHAR
STARTCHAR 0x002E
ENCODING 46
SWIDTH 698 0
DWIDTH 32 0
BBX 32 64 0 -12
BITMAP
00000000
00000000
00000000
00000000
00000000
00000000
00000000
00000000
00000000
00000000
00000000
00000000
00000000
00000000
00000000
00000000
00000000
00000000
00000000
00000000
00000000
00000000
00000000
00000000
00000000
00000000
00000000
00000000
00000000
00000000
00000000
00000000
00000000
00000000
00000000
00000000
00000000
00000000
00000000
00000000
00000000
00000000
00000000
00000000
00000000
00000000
0003C000
0003C000
0003C000
0003C000
0003C000
0003C000
00000000
00000000
00000000
00000000
00000000
00000000
00000000
00000000
00000000
00000000
00000000
00000000
ENDCHAR
STARTCHAR 0x002F
ENCODING 47
SWIDTH 698 0
DWIDTH 32 0
BBX 32 64 0 -12
BITMAP
00000000
00000000
00000000
00000000
00000000
00000000
0000003C
0000003C
0000007C
0000007C
000000F8
000000F8
000001F0
000001F0
000003E0
000003E0
000007C0
000007C0
00000F80
00000F80
00001F00
00001F00
00003E00
00003E00
00007C00
00007C00
0000F800
0000F800
0001F000
0001F000
0003E000
0003E000
0007C000
0007C000
000F8000
000F8000
001F0000
001F0000
003E0000
003E0000
007C0000
007C0000
00F80000
00F80000
01F00000
01F00000
03E00000
03E00000
07C00000
07C00000
0F800000
0F800000
1F000000
1F000000
3E000000
3E000000
3C000000
3C000000
00000000
00000000
00000000
00000000
00000000
00000000
ENDCHAR
STARTCHAR 0x0030
ENCODING 48
SWIDTH 698 0
DWIDTH 32 0
BBX 32 64 0 -12
BITMAP
00000000
00000000
00000000
00000000
00000000
00000000
00000000
00000000
00000000
00000000
00000000
00000000
00FFFF00
01FFFF80
03FFFFC0
07FFFFE0
0FC003F0
0F8001F0
0F0000F0
0F0000F0
0F0000F0
0F0001F0
0F0003F0
0F0007F0
0F000FF0
0F001FF0
0F003FF0
0F007FF0
0F00FEF0
0F01FCF0
0F03F8F0
0F07F0F0
0F0FE0F0
0F1FC0F0
0F3F80F0
0F7F00F0
0FFE00F0
0FFC00F0
0FF800F0
0FF000F0
0FE000F0
0FC000F0
0F8000F0
0F0000F0
0F0000F0
0F0000F0
0F8001F0
0FC003F0
07FFFFE0
03FFFFC0
01FFFF80
00FFFF00
00000000
00000000
00000000
00000000
00000000
00000000
00000000
00000000
00000000
00000000
00000000
00000000
ENDCHAR
STARTCHAR 0x0031
ENCODING 49
SWIDTH 698 0
DWIDTH 32 0
BBX 32 64 0 -12
BITMAP
00000000
00000000
00000000
00000000
00000000
00000000
00000000
00000000
00000000
00000000
00000000
00000000
000FC000
001FC000
003FC000
007FC000
00FBC000
01F3C000
03E3C000
03C3C000
0383C000
0303C000
0003C000
0003C000
0003C000
0003C000
0003C000
0003C000
0003C000
0003C000
0003C000
0003C000
0003C000
0003C000
0003C000
0003C000
0003C000
0003C000
0003C000
0003C000
0003C000
0003C000
0003C000
0003C000
0003C000
0003C000
0003C000
0003C000
03FFFFC0
03FFFFC0
03FFFFC0
03FFFFC0
00000000
00000000
00000000
00000000
00000000
00000000
00000000
00000000
00000000
00000000
00000000
00000000
ENDCHAR
STARTCHAR 0x0032
ENCODING 50
SWIDTH 698 0
DWIDTH 32 0
BBX 32 64 0 -12
BITMAP
00000000
00000000
00000000
00000000
00000000
00000000
00000000
00000000
00000000
00000000
00000000
00000000
00FFFF00
01FFFF80
03FFFFC0
07FFFFE0
0FC003F0
0F8001F0
0F0000F0
0F0000F0
000000F0
000000F0
000000F0
000000F0
000000F0
000001F0
000003E0
000007C0
00000F80
00001F00
00003E00
00007C00
0000F800
0001F000
0003E000
0007C000
000F8000
001F0000
003E0000
007C0000
00F80000
01F00000
03E00000
07C00000
0F8000F0
0F0000F0
0F0000F0
0F0000F0
0FFFFFF0
0FFFFFF0
0FFFFFF0
0FFFFFF0
00000000
00000000
00000000
00000000
00000000
00000000
00000000
00000000
00000000
00000000
00000000
00000000
ENDCHAR
STARTCHAR 0x0033
ENCODING 51
SWIDTH 698 0
DWIDTH 32 0
BBX 32 64 0 -12
BITMAP
00000000
00000000
00000000
00000000
00000000
00000000
00000000
00000000
00000000
00000000
00000000
00000000
00FFFF00
01FFFF80
03FFFFC0
07FFFFE0
0FC003F0
0F8001F0
0F0000F0
0F0000F0
000000F0
000000F0
000000F0
000000F0
000000F0
000000F0
000001E0
000003C0
003FFF80
003FFF00
003FFF80
003FFF80
000003C0
000001E0
000000F0
000000F0
000000F0
000000F0
000000F0
000000F0
000000F0
000000F0
000000F0
000000F0
0F0000F0
0F0000F0
0F8001F0
0FC003F0
07FFFFE0
03FFFFC0
01FFFF80
00FFFF00
00000000
00000000
00000000
00000000
00000000
00000000
00000000
00000000
00000000
00000000
00000000
00000000
ENDCHAR
STARTCHAR 0x0034
ENCODING 52
SWIDTH 698 0
DWIDTH 32 0
BBX 32 64 0 -12
BITMAP
00000000
00000000
00000000
00000000
00000000
00000000
00000000
00000000
00000000
00000000
00000000
00000000
0F000000
0F000000
0F000000
0F000000
0F000000
0F000000
0F000000
0F000000
0F000F00
0F000F00
0F000F00
0F000F00
0F000F00
0F000F00
0F000F00
0F000F00
0F000F00
0F000F00
0F000F00
0F000F00
0F000F00
0F000F00
0F000F00
0F000F00
0FFFFFF0
0FFFFFF0
0FFFFFF0
0FFFFFF0
00000F00
00000F00
00000F00
00000F00
00000F00
00000F00
00000F00
00000F00
00000F00
00000F00
00000F00
00000F00
00000000
00000000
00000000
00000000
00000000
00000000
00000000
00000000
00000000
00000000
00000000
00000000
ENDCHAR
STARTCHAR 0x0035
ENCODING 53
SWIDTH 698 0
DWIDTH 32 0
BBX 32 64 0 -12
BITMAP
00000000
00000000
00000000
00000000
00000000
00000000
00000000
00000000
00000000
00000000
00000000
00000000
0FFFFFF0
0FFFFFF0
0FFFFFF0
0FFFFFF0
0F0000F0
0F0000F0
0F0000F0
0F0000F0
0F000000
0F000000
0F000000
0F000000
0F000000
0F000000
0F000000
0F000000
0FFFFF00
0FFFFF80
0FFFFFC0
0FFFFFE0
000003F0
000001F0
000000F0
000000F0
000000F0
000000F0
000000F0
000000F0
000000F0
000000F0
000000F0
000000F0
0F0000F0
0F0000F0
0F8001F0
0FC003F0
07FFFFE0
03FFFFC0
01FFFF80
00FFFF00
00000000
00000000
00000000
00000000
00000000
00000000
00000000
00000000
00000000
00000000
00000000
00000000
ENDCHAR
STARTCHAR 0x0036
ENCODING 54
SWIDTH 698 0
DWIDTH 32 0
BBX 32 64 0 -12
BITMAP
00000000
00000000
00000000
00000000
00000000
00000000
00000000
00000000
00000000
00000000
00000000
00000000
00FFFF00
01FFFF80
03FFFFC0
07FFFFE0
0FC003F0
0F8001F0
0F0000F0
0F0000F0
0F000000
0F000000
0F000000
0F000000
0F000000
0F000000
0F000000
0F000000
0FFFFF00
0FFFFF80
0FFFFFC0
0FFFFFE0
0F0003F0
0F0001F0
0F0000F0
0F0000F0
0F0000F0
0F0000F0
0F0000F0
0F0000F0
0F0000F0
0F0000F0
0F0000F0
0F0000F0
0F0000F0
0F0000F0
0F8001F0
0FC003F0
07FFFFE0
03FFFFC0
01FFFF80
00FFFF00
00000000
00000000
00000000
00000000
00000000
00000000
00000000
00000000
00000000
00000000
00000000
00000000
ENDCHAR
STARTCHAR 0x0037
ENCODING 55
SWIDTH 698 0
DWIDTH 32 0
BBX 32 64 0 -12
BITMAP
00000000
00000000
00000000
00000000
00000000
00000000
00000000
00000000
00000000
00000000
00000000
00000000
0FFFFFF0
0FFFFFF0
0FFFFFF0
0FFFFFF0
0F0000F0
0F0000F0
0F0000F0
0F0000F0
000000F0
000000F0
000000F0
000000F0
000000F0
000001F0
000003E0
000007C0
00000F80
00001F00
00003E00
00007C00
0000F800
0001F000
0003E000
0007C000
000F8000
000F0000
000F0000
000F0000
000F0000
000F0000
000F0000
000F0000
000F0000
000F0000
000F0000
000F0000
000F0000
000F0000
000F0000
000F0000
00000000
00000000
00000000
00000000
00000000
00000000
00000000
00000000
00000000
00000000
00000000
00000000
ENDCHAR
STARTCHAR 0x0038
ENCODING 56
SWIDTH 698 0
DWIDTH 32 0
BBX 32 64 0 -12
BITMAP
00000000
00000000
00000000
00000000
00000000
00000000
00000000
00000000
00000000
00000000
00000000
00000000
00FFFF00
01FFFF80
03FFFFC0
07FFFFE0
0FC003F0
0F8001F0
0F0000F0
0F0000F0
0F0000F0
0F0000F0
0F0000F0
0F0000F0
0F0000F0
0F0000F0
078001E0
03C003C0
01FFFF80
00FFFF00
00FFFF00
01FFFF80
03C003C0
078001E0
0F0000F0
0F0000F0
0F0000F0
0F0000F0
0F0000F0
0F0000F0
0F0000F0
0F0000F0
0F0000F0
0F0000F0
0F0000F0
0F0000F0
0F8001F0
0FC003F0
07FFFFE0
03FFFFC0
01FFFF80
00FFFF00
00000000
00000000
00000000
00000000
00000000
00000000
00000000
00000000
00000000
00000000
00000000
00000000
ENDCHAR
STARTCHAR 0x0039
ENCODING 57
SWIDTH 698 0
DWIDTH 32 0
BBX 32 64 0 -12
BITMAP
00000000
00000000
00000000
00000000
00000000
00000000
00000000
00000000
00000000
00000000
00000000
00000000
00FFFF00
01FFFF80
03FFFFC0
07FFFFE0
0FC003F0
0F8001F0
0F0000F0
0F0000F0
0F0000F0
0F0000F0
0F0000F0
0F0000F0
0F0000F0
0F0000F0
0F0000F0
0F0000F0
0F0000F0
0F0000F0
0F8000F0
0FC000F0
07FFFFF0
03FFFFF0
01FFFFF0
00FFFFF0
000000F0
000000F0
000000F0
000000F0
000000F0
000000F0
000000F0
000000F0
0F0000F0
0F0000F0
0F8001F0
0FC003F0
07FFFFE0
03FFFFC0
01FFFF80
00FFFF00
00000000
00000000
00000000
00000000
00000000
00000000
00000000
00000000
00000000
00000000
00000000
00000000
ENDCHAR
STARTCHAR 0x003A
ENCODING 58
SWIDTH 698 0
DWIDTH 32 0
BBX 32 64 0 -12
BITMAP
00000000
00000000
00000000
00000000
00000000
00000000
00000000
00000000
00000000
00000000
00000000
00000000
00000000
00000000
00000000
00000000
00000000
00000000
00000000
00000000
00000000
00000000
00000000
00000000
00000000
00000000
0003C000
0003C000
0003C000
0003C000
0003C000
0003C000
00000000
00000000
00000000
00000000
00000000
00000000
00000000
00000000
00000000
00000000
00000000
00000000
00000000
00000000
0003C000
0003C000
0003C000
0003C000
0003C000
0003C000
00000000
00000000
00000000
00000000
00000000
00000000
00000000
00000000
00000000
00000000
00000000
00000000
ENDCHAR
STARTCHAR 0x003B
ENCODING 59
SWIDTH 698 0
DWIDTH 32 0
BBX 32 64 0 -12
BITMAP
00000000
00000000
00000000
00000000
00000000
00000000
00000000
00000000
00000000
00000000
00000000
00000000
00000000
00000000
00000000
00000000
00000000
00000000
00000000
00000000
00000000
00000000
00000000
00000000
00000000
00000000
0003C000
0003C000
0003C000
0003C000
0003C000
0003C000
00000000
00000000
00000000
00000000
00000000
00000000
00000000
00000000
00000000
00000000
00000000
00000000
0003C000
0003C000
0003C000
0003C000
0003C000
0003C000
0007C000
000FC000
003F8000
003F0000
003E0000
003C0000
00000000
00000000
00000000
00000000
00000000
00000000
00000000
00000000
ENDCHAR
STARTCHAR 0x003C
ENCODING 60
SWIDTH 698 0
DWIDTH 32 0
BBX 32 64 0 -12
BITMAP
00000000
00000000
00000000
00000000
00000000
00000000
00000000
00000000
00000000
00000000
00000000
00000000
000003F0
000007E0
00000FC0
00001F80
00003F00
00007E00
0000FC00
0001F800
0003F000
0007E000
000FC000
001F8000
003F0000
007E0000
00FC0000
01F80000
03F00000
07E00000
0FC00000
0FC00000
0FC00000
0FC00000
07E00000
03F00000
01F80000
00FC0000
007E0000
003F0000
001F8000
000FC000
0007E000
0003F000
0001F800
0000FC00
00007E00
00003F00
00001F80
00000FC0
000007E0
000003F0
00000000
00000000
00000000
00000000
00000000
00000000
00000000
00000000
00000000
00000000
00000000
00000000
ENDCHAR
STARTCHAR 0x003D
ENCODING 61
SWIDTH 698 0
DWIDTH 32 0
BBX 32 64 0 -12
BITMAP
00000000
00000000
00000000
00000000
00000000
00000000
00000000
00000000
00000000
00000000
00000000
00000000
00000000
00000000
00000000
00000000
00000000
00000000
00000000
00000000
00000000
00000000
00000000
00000000
0FFFFFF0
0FFFFFF0
0FFFFFF0
0FFFFFF0
00000000
00000000
00000000
00000000
00000000
00000000
00000000
00000000
0FFFFFF0
0FFFFFF0
0FFFFFF0
0FFFFFF0
00000000
00000000
00000000
00000000
00000000
00000000
00000000
00000000
00000000
00000000
00000000
00000000
00000000
00000000
00000000
00000000
00000000
00000000
00000000
00000000
00000000
00000000
00000000
00000000
ENDCHAR
STARTCHAR 0x003E
ENCODING 62
SWIDTH 698 0
DWIDTH 32 0
BBX 32 64 0 -12
BITMAP
00000000
00000000
00000000
00000000
00000000
00000000
00000000
00000000
00000000
00000000
00000000
00000000
0FC00000
07E00000
03F00000
01F80000
00FC0000
007E0000
003F0000
001F8000
000FC000
0007E000
0003F000
0001F800
0000FC00
00007E00
00003F00
00001F80
00000FC0
000007E0
000003F0
000003F0
000003F0
000003F0
000007E0
00000FC0
00001F80
00003F00
00007E00
0000FC00
0001F800
0003F000
0007E000
000FC000
001F8000
003F0000
007E0000
00FC0000
01F80000
03F00000
07E00000
0FC00000
00000000
00000000
00000000
00000000
00000000
00000000
00000000
00000000
00000000
00000000
00000000
00000000
ENDCHAR
STARTCHAR 0x003F
ENCODING 63
SWIDTH 698 0
DWIDTH 32 0
BBX 32 64 0 -12
BITMAP
00000000
00000000
00000000
00000000
00000000
00000000
00000000
00000000
00000000
00000000
00000000
00000000
00FFFF00
01FFFF80
03FFFFC0
07FFFFE0
0FC003F0
0F8001F0
0F0000F0
0F0000F0
000000F0
000000F0
000000F0
000000F0
000001E0
000003C0
00000780
00000F00
00001E00
00003C00
00007800
00007800
0000F000
0000F000
0001E000
0001E000
0003C000
0003C000
0003C000
0003C000
00000000
00000000
00000000
00000000
00000000
00000000
0003C000
0003C000
0003C000
0003C000
0003C000
0003C000
00000000
00000000
00000000
00000000
00000000
00000000
00000000
00000000
00000000
00000000
00000000
00000000
ENDCHAR
STARTCHAR 0x0040
ENCODING 64
SWIDTH 698 0
DWIDTH 32 0
BBX 32 64 0 -12
BITMAP
00000000
00000000
00000000
00000000
00000000
00000000
00000000
00000000
00000000
00000000
00000000
00000000
00000000
00000000
00000000
00000000
00000000
00000000
00000000
00000000
00FFFF00
01FFFF80
03FFFFC0
07FFFFE0
0FC003F0
0F8001F0
0F0000F0
0F0000F0
0F0000F0
0F0000F0
0F03F0F0
0F03F0F0
0F03F0F0
0F03F0F0
0F03F0F0
0F03F0F0
0F03F0F0
0F03F0F0
0F03F0F0
0F03F0F0
0F03FFF0
0F03FFF0
0F03FFF0
0F03FFF0
0F000000
0F000000
0F800000
0FC00000
07FFFFC0
03FFFFC0
01FFFFC0
00FFFFC0
00000000
00000000
00000000
00000000
00000000
00000000
00000000
00000000
00000000
00000000
00000000
00000000
ENDCHAR
STARTCHAR 0x0041
ENCODING 65
SWIDTH 698 0
DWIDTH 32 0
BBX 32 64 0 -12
BITMAP
00000000
00000000
00000000
00000000
00000000
00000000
00000000
00000000
00000000
00000000
00000000
00000000
00FFFF00
01FFFF80
03FFFFC0
07FFFFE0
0FC003F0
0F8001F0
0F0000F0
0F0000F0
0F0000F0
0F0000F0
0F0000F0
0F0000F0
0F0000F0
0F0000F0
0F0000F0
0F0000F0
0FFFFFF0
0FFFFFF0
0FFFFFF0
0FFFFFF0
0F0000F0
0F0000F0
0F0000F0
0F0000F0
0F0000F0
0F0000F0
0F0000F0
0F0000F0
0F0000F0
0F0000F0
0F0000F0
0F0000F0
0F0000F0
0F0000F0
0F0000F0
0F0000F0
0F0000F0
0F0000F0
0F0000F0
0F0000F0
00000000
00000000
00000000
00000000
00000000
00000000
00000000
00000000
00000000
00000000
00000000
00000000
ENDCHAR
STARTCHAR 0x0042
ENCODING 66
SWIDTH 698 0
DWIDTH 32 0
BBX 32 64 0 -12
BITMAP
00000000
00000000
00000000
00000000
00000000
00000000
00000000
00000000
00000000
00000000
00000000
00000000
0FFFFF00
0FFFFF80
0FFFFFC0
0FFFFFE0
0F0003F0
0F0001F0
0F0000F0
0F0000F0
0F0000F0
0F0000F0
0F0000F0
0F0000F0
0F0000F0
0F0000F0
0F0001E0
0F0003C0
0FFFFF80
0FFFFF00
0FFFFF00
0FFFFF80
0F0003C0
0F0001E0
0F0000F0
0F0000F0
0F0000F0
0F0000F0
0F0000F0
0F0000F0
0F0000F0
0F0000F0
0F0000F0
0F0000F0
0F0000F0
0F0000F0
0F0001F0
0F0003F0
0FFFFFE0
0FFFFFC0
0FFFFF80
0FFFFF00
00000000
00000000
00000000
00000000
00000000
00000000
00000000
00000000
00000000
00000000
00000000
00000000
ENDCHAR
STARTCHAR 0x0043
ENCODING 67
SWIDTH 698 0
DWIDTH 32 0
BBX 32 64 0 -12
BITMAP
00000000
00000000
00000000
00000000
00000000
00000000
00000000
00000000
00000000
00000000
00000000
00000000
00FFFFF0
01FFFFF0
03FFFFF0
07FFFFF0
0FC000F0
0F8000F0
0F0000F0
0F0000F0
0F000000
0F000000
0F000000
0F000000
0F000000
0F000000
0F000000
0F000000
0F000000
0F000000
0F000000
0F000000
0F000000
0F000000
0F000000
0F000000
0F000000
0F000000
0F000000
0F000000
0F000000
0F000000
0F000000
0F000000
0F000000
0F000000
0F800000
0FC00000
07FFFFF0
03FFFFF0
01FFFFF0
00FFFFF0
00000000
00000000
00000000
00000000
00000000
00000000
00000000
00000000
00000000
00000000
00000000
00000000
ENDCHAR
STARTCHAR 0x0044
ENCODING 68
SWIDTH 698 0
DWIDTH 32 0
BBX 32 64 0 -12
BITMAP
00000000
00000000
00000000
00000000
00000000
00000000
00000000
00000000
00000000
00000000
00000000
00000000
0FFFFF00
0FFFFF80
0FFFFFC0
0FFFFFE0
0F0003F0
0F0001F0
0F0000F0
0F0000F0
0F0000F0
0F0000F0
0F0000F0
0F0000F0
0F0000F0
0F0000F0
0F0000F0
0F0000F0
0F0000F0
0F0000F0
0F0000F0
0F0000F0
0F0000F0
0F0000F0
0F0000F0
0F0000F0
0F0000F0
0F0000F0
0F0000F0
0F0000F0
0F0000F0
0F0000F0
0F0000F0
0F0000F0
0F0000F0
0F0000F0
0F0001F0
0F0003F0
0FFFFFE0
0FFFFFC0
0FFFFF80
0FFFFF00
00000000
00000000
00000000
00000000
00000000
00000000
00000000
00000000
00000000
00000000
00000000
00000000
ENDCHAR
STARTCHAR 0x0045
ENCODING 69
SWIDTH 698 0
DWIDTH 32 0
BBX 32 64 0 -12
BITMAP
00000000
00000000
00000000
00000000
00000000
00000000
00000000
00000000
00000000
00000000
00000000
00000000
00FFFFF0
01FFFFF0
03FFFFF0
07FFFFF0
0FC00000
0F800000
0F000000
0F000000
0F000000
0F000000
0F000000
0F000000
0F000000
0F000000
0F000000
0F000000
0FFFFC00
0FFFFC00
0FFFFC00
0FFFFC00
0F000000
0F000000
0F000000
0F000000
0F000000
0F000000
0F000000
0F000000
0F000000
0F000000
0F000000
0F000000
0F000000
0F000000
0F800000
0FC00000
07FFFFF0
03FFFFF0
01FFFFF0
00FFFFF0
00000000
00000000
00000000
00000000
00000000
00000000
00000000
00000000
00000000
00000000
00000000
00000000
ENDCHAR
STARTCHAR 0x0046
ENCODING 70
SWIDTH 698 0
DWIDTH 32 0
BBX 32 64 0 -12
BITMAP
00000000
00000000
00000000
00000000
00000000
00000000
00000000
00000000
00000000
00000000
00000000
00000000
00FFFFF0
01FFFFF0
03FFFFF0
07FFFFF0
0FC000F0
0F8000F0
0F0000F0
0F0000F0
0F000000
0F000000
0F000000
0F000000
0F000000
0F000000
0F000000
0F000000
0FFFFC00
0FFFFC00
0FFFFC00
0FFFFC00
0F000000
0F000000
0F000000
0F000000
0F000000
0F000000
0F000000
0F000000
0F000000
0F000000
0F000000
0F000000
0F000000
0F000000
0F000000
0F000000
0F000000
0F000000
0F000000
0F000000
00000000
00000000
00000000
00000000
00000000
00000000
00000000
00000000
00000000
00000000
00000000
00000000
ENDCHAR
STARTCHAR 0x0047
ENCODING 71
SWIDTH 698 0
DWIDTH 32 0
BBX 32 64 0 -12
BITMAP
00000000
00000000
00000000
00000000
00000000
00000000
00000000
00000000
00000000
00000000
00000000
00000000
00FFFFF0
01FFFFF0
03FFFFF0
07FFFFF0
0FC000F0
0F8000F0
0F0000F0
0F0000F0
0F000000
0F000000
0F000000
0F000000
0F000000
0F000000
0F000000
0F000000
0F00FFF0
0F00FFF0
0F00FFF0
0F00FFF0
0F0000F0
0F0000F0
0F0000F0
0F0000F0
0F0000F0
0F0000F0
0F0000F0
0F0000F0
0F0000F0
0F0000F0
0F0000F0
0F0000F0
0F0000F0
0F0000F0
0F8000F0
0FC000F0
07FFFFF0
03FFFFF0
01FFFFF0
00FFFFF0
00000000
00000000
00000000
00000000
00000000
00000000
00000000
00000000
00000000
00000000
00000000
00000000
ENDCHAR
STARTCHAR 0x0048
ENCODING 72
SWIDTH 698 0
DWIDTH 32 0
BBX 32 64 0 -12
BITMAP
00000000
00000000
00000000
00000000
00000000
00000000
00000000
00000000
00000000
00000000
00000000
00000000
0F0000F0
0F0000F0
0F0000F0
0F0000F0
0F0000F0
0F0000F0
0F0000F0
0F0000F0
0F0000F0
0F0000F0
0F0000F0
0F0000F0
0F0000F0
0F0000F0
0F0000F0
0F0000F0
0FFFFFF0
0FFFFFF0
0FFFFFF0
0FFFFFF0
0F0000F0
0F0000F0
0F0000F0
0F0000F0
0F0000F0
0F0000F0
0F0000F0
0F0000F0
0F0000F0
0F0000F0
0F0000F0
0F0000F0
0F0000F0
0F0000F0
0F0000F0
0F0000F0
0F0000F0
0F0000F0
0F0000F0
0F0000F0
00000000
00000000
00000000
00000000
00000000
00000000
00000000
00000000
00000000
00000000
00000000
00000000
ENDCHAR
STARTCHAR 0x0049
ENCODING 73
SWIDTH 698 0
DWIDTH 32 0
BBX 32 64 0 -12
BITMAP
00000000
00000000
00000000
00000000
00000000
00000000
00000000
00000000
00000000
00000000
00000000
00000000
03FFFFC0
03FFFFC0
03FFFFC0
03FFFFC0
0003C000
0003C000
0003C000
0003C000
0003C000
0003C000
0003C000
0003C000
0003C000
0003C000
0003C000
0003C000
0003C000
0003C000
0003C000
0003C000
0003C000
0003C000
0003C000
0003C000
0003C000
0003C000
0003C000
0003C000
0003C000
0003C000
0003C000
0003C000
0003C000
0003C000
0003C000
0003C000
03FFFFC0
03FFFFC0
03FFFFC0
03FFFFC0
00000000
00000000
00000000
00000000
00000000
00000000
00000000
00000000
00000000
00000000
00000000
00000000
ENDCHAR
STARTCHAR 0x004A
ENCODING 74
SWIDTH 698 0
DWIDTH 32 0
BBX 32 64 0 -12
BITMAP
00000000
00000000
00000000
00000000
00000000
00000000
00000000
00000000
00000000
00000000
00000000
00000000
03FFFFC0
03FFFFC0
03FFFFC0
03FFFFC0
0003C000
0003C000
0003C000
0003C000
0003C000
0003C000
0003C000
0003C000
0003C000
0003C000
0003C000
0003C000
0003C000
0003C000
0003C000
0003C000
0003C000
0003C000
0003C000
0003C000
0003C000
0003C000
0003C000
0003C000
0003C000
0003C000
0003C000
0003C000
0003C000
0003C000
0007C000
000FC000
3FFF8000
3FFF0000
3FFE0000
3FFC0000
00000000
00000000
00000000
00000000
00000000
00000000
00000000
00000000
00000000
00000000
00000000
00000000
ENDCHAR
STARTCHAR 0x004B
ENCODING 75
SWIDTH 698 0
DWIDTH 32 0
BBX 32 64 0 -12
BITMAP
00000000
00000000
00000000
00000000
00000000
00000000
00000000
00000000
00000000
00000000
00000000
00000000
0F0000F0
0F0000F0
0F0000F0
0F0000F0
0F0000F0
0F0000F0
0F0000F0
0F0000F0
0F0000F0
0F0000F0
0F0000F0
0F0000F0
0F0001E0
0F0003C0
0F000780
0F000F00
0FFFFE00
0FFFFC00
0FFFFC00
0FFFFE00
0F000F00
0F000780
0F0003C0
0F0001E0
0F0000F0
0F0000F0
0F0000F0
0F0000F0
0F0000F0
0F0000F0
0F0000F0
0F0000F0
0F0000F0
0F0000F0
0F0000F0
0F0000F0
0F0000F0
0F0000F0
0F0000F0
0F0000F0
00000000
00000000
00000000
00000000
00000000
00000000
00000000
00000000
00000000
00000000
00000000
00000000
ENDCHAR
STARTCHAR 0x004C
ENCODING 76
SWIDTH 698 0
DWIDTH 32 0
BBX 32 64 0 -12
BITMAP
00000000
00000000
00000000
00000000
00000000
00000000
00000000
00000000
00000000
00000000
00000000
00000000
0F000000
0F000000
0F000000
0F000000
0F000000
0F000000
0F000000
0F000000
0F000000
0F000000
0F000000
0F000000
0F000000
0F000000
0F000000
0F000000
0F000000
0F000000
0F000000
0F000000
0F000000
0F000000
0F000000
0F000000
0F000000
0F000000
0F000000
0F000000
0F000000
0F000000
0F000000
0F000000
0F000000
0F000000
0F800000
0FC00000
07FFFFC0
03FFFFC0
01FFFFC0
00FFFFC0
00000000
00000000
00000000
00000000
00000000
00000000
00000000
00000000
00000000
00000000
00000000
00000000
ENDCHAR
STARTCHAR 0x004D
ENCODING 77
SWIDTH 698 0
DWIDTH 32 0
BBX 32 64 0 -12
BITMAP
00000000
00000000
00000000
00000000
00000000
00000000
00000000
00000000
00000000
00000000
00000000
00000000
0F0000F0
0F8001F0
0FC003F0
0FE007F0
0FF00FF0
0FF81FF0
0FFC3FF0
0F7E7EF0
0F3FFCF0
0F1FF8F0
0F0FF0F0
0F07E0F0
0F03C0F0
0F0180F0
0F0000F0
0F0000F0
0F0000F0
0F0000F0
0F0000F0
0F0000F0
0F0000F0
0F0000F0
0F0000F0
0F0000F0
0F0000F0
0F0000F0
0F0000F0
0F0000F0
0F0000F0
0F0000F0
0F0000F0
0F0000F0
0F0000F0
0F0000F0
0F0000F0
0F0000F0
0F0000F0
0F0000F0
0F0000F0
0F0000F0
00000000
00000000
00000000
00000000
00000000
00000000
00000000
00000000
00000000
00000000
00000000
00000000
ENDCHAR
STARTCHAR 0x004E
ENCODING 78
SWIDTH 698 0
DWIDTH 32 0
BBX 32 64 0 -12
BITMAP
00000000
00000000
00000000
00000000
00000000
00000000
00000000
00000000
00000000
00000000
00000000
00000000
0F0000F0
0F0000F0
0F8000F0
0F8000F0
0FC000F0
0FC000F0
0FE000F0
0FE000F0
0FF000F0
0FF000F0
0FF800F0
0FF800F0
0F7C00F0
0F7C00F0
0F3E00F0
0F3E00F0
0F1F00F0
0F1F00F0
0F0F80F0
0F0F80F0
0F07C0F0
0F07C0F0
0F03E0F0
0F03E0F0
0F01F0F0
0F01F0F0
0F00F8F0
0F00F8F0
0F007CF0
0F007CF0
0F003EF0
0F003EF0
0F001FF0
0F001FF0
0F000FF0
0F000FF0
0F0007F0
0F0007F0
0F0003F0
0F0003F0
00000000
00000000
00000000
00000000
00000000
00000000
00000000
00000000
00000000
00000000
00000000
00000000
ENDCHAR
STARTCHAR 0x004F
ENCODING 79
SWIDTH 698 0
DWIDTH 32 0
BBX 32 64 0 -12
BITMAP
00000000
00000000
00000000
00000000
00000000
00000000
00000000
00000000
00000000
00000000
00000000
00000000
00FFFF00
01FFFF80
03FFFFC0
07FFFFE0
0FC003F0
0F8001F0
0F0000F0
0F0000F0
0F0000F0
0F0000F0
0F0000F0
0F0000F0
0F0000F0
0F0000F0
0F0000F0
0F0000F0
0F0000F0
0F0000F0
0F0000F0
0F0000F0
0F0000F0
0F0000F0
0F0000F0
0F0000F0
0F0000F0
0F0000F0
0F0000F0
0F0000F0
0F0000F0
0F0000F0
0F0000F0
0F0000F0
0F0000F0
0F0000F0
0F8001F0
0FC003F0
07FFFFE0
03FFFFC0
01FFFF80
00FFFF00
00000000
00000000
00000000
00000000
00000000
00000000
00000000
00000000
00000000
00000000
00000000
00000000
ENDCHAR
STARTCHAR 0x0050
ENCODING 80
SWIDTH 698 0
DWIDTH 32 0
BBX 32 64 0 -12
BITMAP
00000000
00000000
00000000
00000000
00000000
00000000
00000000
00000000
00000000
00000000
00000000
00000000
0FFFFF00
0FFFFF80
0FFFFFC0
0FFFFFE0
0F0003F0
0F0001F0
0F0000F0
0F0000F0
0F0000F0
0F0000F0
0F0000F0
0F0000F0
0F0000F0
0F0000F0
0F0001F0
0F0003F0
0FFFFFE0
0FFFFFC0
0FFFFF80
0FFFFF00
0F000000
0F000000
0F000000
0F000000
0F000000
0F000000
0F000000
0F000000
0F000000
0F000000
0F000000
0F000000
0F000000
0F000000
0F000000
0F000000
0F000000
0F000000
0F000000
0F000000
00000000
00000000
00000000
00000000
00000000
00000000
00000000
00000000
00000000
00000000
00000000
00000000
ENDCHAR
STARTCHAR 0x0051
ENCODING 81
SWIDTH 698 0
DWIDTH 32 0
BBX 32 64 0 -12
BITMAP
00000000
00000000
00000000
00000000
00000000
00000000
00000000
00000000
00000000
00000000
00000000
00000000
00FFFFF0
01FFFFF0
03FFFFF0
07FFFFF0
0FC000F0
0F8000F0
0F0000F0
0F0000F0
0F0000F0
0F0000F0
0F0000F0
0F0000F0
0F0000F0
0F0000F0
0F0000F0
0F0000F0
0F0000F0
0F0000F0
0F0000F0
0F0000F0
0F0000F0
0F0000F0
0F0000F0
0F0000F0
0F0000F0
0F0000F0
0F0000F0
0F0000F0
0F03C0F0
0F03C0F0
0F03C0F0
0F03C0F0
0F03C0F0
0F03C0F0
0F03C1F0
0F03C3F0
0FFFFFE0
0FFFFFC0
0FFFFF80
0FFFFF00
0003C000
0003C000
0003C000
0003C000
0003C000
0003C000
0003C000
0003C000
00000000
00000000
00000000
00000000
ENDCHAR
STARTCHAR 0x0052
ENCODING 82
SWIDTH 698 0
DWIDTH 32 0
BBX 32 64 0 -12
BITMAP
00000000
00000000
00000000
00000000
00000000
00000000
00000000
00000000
00000000
00000000
00000000
00000000
0FFFFF00
0FFFFF80
0FFFFFC0
0FFFFFE0
0F0003F0
0F0001F0
0F0000F0
0F0000F0
0F0000F0
0F0000F0
0F0000F0
0F0000F0
0F0000F0
0F0000F0
0F0001E0
0F0003C0
0FFFFF80
0FFFFF00
0FFFFF00
0FFFFF80
0F0003C0
0F0001E0
0F0000F0
0F0000F0
0F0000F0
0F0000F0
0F0000F0
0F0000F0
0F0000F0
0F0000F0
0F0000F0
0F0000F0
0F0000F0
0F0000F0
0F0000F0
0F0000F0
0F0000F0
0F0000F0
0F0000F0
0F0000F0
00000000
00000000
00000000
00000000
00000000
00000000
00000000
00000000
00000000
00000000
00000000
00000000
ENDCHAR
STARTCHAR 0x0053
ENCODING 83
SWIDTH 698 0
DWIDTH 32 0
BBX 32 64 0 -12
BITMAP
00000000
00000000
00000000
00000000
00000000
00000000
00000000
00000000
00000000
00000000
00000000
00000000
00FFFFF0
01FFFFF0
03FFFFF0
07FFFFF0
0FC00000
0F800000
0F000000
0F000000
0F000000
0F000000
0F000000
0F000000
0F000000
0F000000
0F800000
0FC00000
07FFFF00
03FFFF80
01FFFFC0
00FFFFE0
000003F0
000001F0
000000F0
000000F0
000000F0
000000F0
000000F0
000000F0
000000F0
000000F0
000000F0
000000F0
000000F0
000000F0
000001F0
000003F0
0FFFFFE0
0FFFFFC0
0FFFFF80
0FFFFF00
00000000
00000000
00000000
00000000
00000000
00000000
00000000
00000000
00000000
00000000
00000000
00000000
ENDCHAR
STARTCHAR 0x0054
ENCODING 84
SWIDTH 698 0
DWIDTH 32 0
BBX 32 64 0 -12
BITMAP
00000000
00000000
00000000
00000000
00000000
00000000
00000000
00000000
00000000
00000000
00000000
00000000
3FFFFFFC
3FFFFFFC
3FFFFFFC
3FFFFFFC
0003C000
0003C000
0003C000
0003C000
0003C000
0003C000
0003C000
0003C000
0003C000
0003C000
0003C000
0003C000
0003C000
0003C000
0003C000
0003C000
0003C000
0003C000
0003C000
0003C000
0003C000
0003C000
0003C000
0003C000
0003C000
0003C000
0003C000
0003C000
0003C000
0003C000
0003C000
0003C000
0003C000
0003C000
0003C000
0003C000
00000000
00000000
00000000
00000000
00000000
00000000
00000000
00000000
00000000
00000000
00000000
00000000
ENDCHAR
STARTCHAR 0x0055
ENCODING 85
SWIDTH 698 0
DWIDTH 32 0
BBX 32 64 0 -12
BITMAP
00000000
00000000
00000000
00000000
00000000
00000000
00000000
00000000
00000000
00000000
00000000
00000000
0F0000F0
0F0000F0
0F0000F0
0F0000F0
0F0000F0
0F0000F0
0F0000F0
0F0000F0
0F0000F0
0F0000F0
0F0000F0
0F0000F0
0F0000F0
0F0000F0
0F0000F0
0F0000F0
0F0000F0
0F0000F0
0F0000F0
0F0000F0
0F0000F0
0F0000F0
0F0000F0
0F0000F0
0F0000F0
0F0000F0
0F0000F0
0F0000F0
0F0000F0
0F0000F0
0F0000F0
0F0000F0
0F0000F0
0F0000F0
0F8000F0
0FC000F0
07FFFFF0
03FFFFF0
01FFFFF0
00FFFFF0
00000000
00000000
00000000
00000000
00000000
00000000
00000000
00000000
00000000
00000000
00000000
00000000
ENDCHAR
STARTCHAR 0x0056
ENCODING 86
SWIDTH 698 0
DWIDTH 32 0
BBX 32 64 0 -12
BITMAP
00000000
00000000
00000000
00000000
00000000
00000000
00000000
00000000
00000000
00000000
00000000
00000000
0F0000F0
0F0000F0
0F0000F0
0F0000F0
0F0000F0
0F0000F0
0F0000F0
0F0000F0
0F0000F0
0F0000F0
0F0000F0
0F0000F0
0F0000F0
0F0000F0
0F0000F0
0F0000F0
0F0000F0
0F0000F0
0F0000F0
0F0000F0
0F0000F0
0F0000F0
0F0000F0
0F0000F0
0F0000F0
0F0000F0
0F0000F0
0F0000F0
078001E0
078001E0
03C003C0
03E007C0
01F00F80
00F81F00
007C3E00
003E7C00
001FF800
000FF000
0007E000
0003C000
00000000
00000000
00000000
00000000
00000000
00000000
00000000
00000000
00000000
00000000
00000000
00000000
ENDCHAR
STARTCHAR 0x0057
ENCODING 87
SWIDTH 698 0
DWIDTH 32 0
BBX 32 64 0 -12
BITMAP
00000000
00000000
00000000
00000000
00000000
00000000
00000000
00000000
00000000
00000000
00000000
00000000
0F0000F0
0F0000F0
0F0000F0
0F0000F0
0F0000F0
0F0000F0
0F0000F0
0F0000F0
0F0000F0
0F0000F0
0F0000F0
0F0000F0
0F0000F0
0F0000F0
0F0000F0
0F0000F0
0F0000F0
0F0000F0
0F0000F0
0F0000F0
0F0000F0
0F0000F0
0F0000F0
0F0000F0
0F0000F0
0F0000F0
0F0180F0
0F03C0F0
0F07E0F0
0F0FF0F0
0F1FF8F0
0F3FFCF0
0F7E7EF0
0FFC3FF0
0FF81FF0
0FF00FF0
0FE007F0
0FC003F0
0F8001F0
0F0000F0
00000000
00000000
00000000
00000000
00000000
00000000
00000000
00000000
00000000
00000000
00000000
00000000
ENDCHAR
STARTCHAR 0x0058
ENCODING 88
SWIDTH 698 0
DWIDTH 32 0
BBX 32 64 0 -12
BITMAP
00000000
00000000
00000000
00000000
00000000
00000000
00000000
00000000
00000000
00000000
00000000
00000000
0F0000F0
0F0000F0
0F0000F0
0F0000F0
0F0000F0
0F0000F0
0F0000F0
0F0000F0
0F0000F0
0F0000F0
0F0000F0
0F0000F0
078001E0
03C003C0
01E00780
00F00F00
007FFE00
003FFC00
003FFC00
007FFE00
00F00F00
01E00780
03C003C0
078001E0
0F0000F0
0F0000F0
0F0000F0
0F0000F0
0F0000F0
0F0000F0
0F0000F0
0F0000F0
0F0000F0
0F0000F0
0F0000F0
0F0000F0
0F0000F0
0F0000F0
0F0000F0
0F0000F0
00000000
00000000
00000000
00000000
00000000
00000000
00000000
00000000
00000000
00000000
00000000
00000000
ENDCHAR
STARTCHAR 0x0059
ENCODING 89
SWIDTH 698 0
DWIDTH 32 0
BBX 32 64 0 -12
BITMAP
00000000
00000000
00000000
00000000
00000000
00000000
00000000
00000000
00000000
00000000
00000000
00000000
0F0000F0
0F0000F0
0F0000F0
0F0000F0
0F0000F0
0F0000F0
0F0000F0
0F0000F0
0F0000F0
0F0000F0
0F0000F0
0F0000F0
0F0000F0
0F0000F0
0F8000F0
0FC000F0
07FFFFF0
03FFFFF0
01FFFFF0
00FFFFF0
000000F0
000000F0
000000F0
000000F0
000000F0
000000F0
000000F0
000000F0
000000F0
000000F0
000000F0
000000F0
000000F0
000000F0
000001F0
000003F0
0FFFFFE0
0FFFFFC0
0FFFFF80
0FFFFF00
00000000
00000000
00000000
00000000
00000000
00000000
00000000
00000000
00000000
00000000
00000000
00000000
ENDCHAR
STARTCHAR 0x005A
ENCODING 90
SWIDTH 698 0
DWIDTH 32 0
BBX 32 64 0 -12
BITMAP
00000000
00000000
00000000
00000000
00000000
00000000
00000000
00000000
00000000
00000000
00000000
00000000
0FFFFFF0
0FFFFFF0
0FFFFFF0
0FFFFFF0
000000F0
000000F0
000000F0
000000F0
000000F0
000000F0
000000F0
000001F0
000003E0
000007C0
00000F80
00001F00
00003E00
00007C00
0000F800
0001F000
0003E000
0007C000
000F8000
001F0000
003E0000
007C0000
00F80000
01F00000
03E00000
07C00000
0F800000
0F000000
0F000000
0F000000
0F000000
0F000000
0FFFFFF0
0FFFFFF0
0FFFFFF0
0FFFFFF0
00000000
00000000
00000000
00000000
00000000
00000000
00000000
00000000
00000000
00000000
00000000
00000000
ENDCHAR
STARTCHAR 0x005B
ENCODING 91
SWIDTH 698 0
DWIDTH 32 0
BBX 32 64 0 -12
BITMAP
00000000
00000000
00000000
00000000
00FFFFF0
00FFFFF0
00FFFFF0
00FFFFF0
00F00000
00F00000
00F00000
00F00000
00F00000
00F00000
00F00000
00F00000
00F00000
00F00000
00F00000
00F00000
00F00000
00F00000
00F00000
00F00000
00F00000
00F00000
00F00000
00F00000
00F00000
00F00000
00F00000
00F00000
00F00000
00F00000
00F00000
00F00000
00F00000
00F00000
00F00000
00F00000
00F00000
00F00000
00F00000
00F00000
00F00000
00F00000
00F00000
00F00000
00F00000
00F00000
00F00000
00F00000
00F00000
00F00000
00F00000
00F00000
00FFFFF0
00FFFFF0
00FFFFF0
00FFFFF0
00000000
00000000
00000000
00000000
ENDCHAR
STARTCHAR 0x005C
ENCODING 92
SWIDTH 698 0
DWIDTH 32 0
BBX 32 64 0 -12
BITMAP
00000000
00000000
00000000
00000000
00000000
00000000
3C000000
3C000000
3E000000
3E000000
1F000000
1F000000
0F800000
0F800000
07C00000
07C00000
03E00000
03E00000
01F00000
01F00000
00F80000
00F80000
007C0000
007C0000
003E0000
003E0000
001F0000
001F0000
000F8000
000F8000
0007C000
0007C000
0003E000
0003E000
0001F000
0001F000
0000F800
0000F800
00007C00
00007C00
00003E00
00003E00
00001F00
00001F00
00000F80
00000F80
000007C0
000007C0
000003E0
000003E0
000001F0
000001F0
000000F8
000000F8
0000007C
0000007C
0000003C
0000003C
00000000
00000000
00000000
00000000
00000000
00000000
ENDCHAR
STARTCHAR 0x005D
ENCODING 93
SWIDTH 698 0
DWIDTH 32 0
BBX 32 64 0 -12
BITMAP
00000000
00000000
00000000
00000000
0FFFFF00
0FFFFF00
0FFFFF00
0FFFFF00
00000F00
00000F00
00000F00
00000F00
00000F00
00000F00
00000F00
00000F00
00000F00
00000F00
00000F00
00000F00
00000F00
00000F00
00000F00
00000F00
00000F00
00000F00
00000F00
00000F00
00000F00
00000F00
00000F00
00000F00
00000F00
00000F00
00000F00
00000F00
00000F00
00000F00
00000F00
00000F00
00000F00
00000F00
00000F00
00000F00
00000F00
00000F00
00000F00
00000F00
00000F00
00000F00
00000F00
00000F00
00000F00
00000F00
00000F00
00000F00
0FFFFF00
0FFFFF00
0FFFFF00
0FFFFF00
00000000
00000000
00000000
00000000
ENDCHAR
STARTCHAR 0x005E
ENCODING 94
SWIDTH 698 0
DWIDTH 32 0
BBX 32 64 0 -12
BITMAP
00000000
00000000
00000000
00000000
00000000
00000000
00000000
00000000
0003C000
0007E000
000FF000
001FF800
003FFC00
007FFE00
00FC3F00
01F81F80
03F00FC0
07E007E0
0FC003F0
1F8001F8
3F0000FC
3E00007C
3C00003C
3800001C
00000000
00000000
00000000
00000000
00000000
00000000
00000000
00000000
00000000
00000000
00000000
00000000
00000000
00000000
00000000
00000000
00000000
00000000
00000000
00000000
00000000
00000000
00000000
00000000
00000000
00000000
00000000
00000000
00000000
00000000
00000000
00000000
00000000
00000000
00000000
00000000
00000000
00000000
00000000
00000000
ENDCHAR
STARTCHAR 0x005F
ENCODING 95
SWIDTH 698 0
DWIDTH 32 0
BBX 32 64 0 -12
BITMAP
00000000
00000000
00000000
00000000
00000000
00000000
00000000
00000000
00000000
00000000
00000000
00000000
00000000
00000000
00000000
00000000
00000000
00000000
00000000
00000000
00000000
00000000
00000000
00000000
00000000
00000000
00000000
00000000
00000000
00000000
00000000
00000000
00000000
00000000
00000000
00000000
00000000
00000000
00000000
00000000
00000000
00000000
00000000
00000000
00000000
00000000
00000000
00000000
00000000
00000000
00000000
00000000
00000000
00000000
00000000
00000000
3FFFFFFC
3FFFFFFC
3FFFFFFC
3FFFFFFC
00000000
00000000
00000000
00000000
ENDCHAR
STARTCHAR 0x0060
ENCODING 96
SWIDTH 698 0
DWIDTH 32 0
BBX 32 64 0 -12
BITMAP
00000000
00000000
00000000
00000000
00000000
00000000
00000000
00000000
00380000
003C0000
003E0000
003F0000
001F8000
000FC000
0007E000
0003F000
0001F800
0000FC00
00007C00
00003C00
00000000
00000000
00000000
00000000
00000000
00000000
00000000
00000000
00000000
00000000
00000000
00000000
00000000
00000000
00000000
00000000
00000000
00000000
00000000
00000000
00000000
00000000
00000000
00000000
00000000
00000000
00000000
00000000
00000000
00000000
00000000
00000000
00000000
00000000
00000000
00000000
00000000
00000000
00000000
00000000
00000000
00000000
00000000
00000000
ENDCHAR
STARTCHAR 0x0061
ENCODING 97
SWIDTH 698 0
DWIDTH 32 0
BBX 32 64 0 -12
BITMAP
00000000
00000000
00000000
00000000
00000000
00000000
00000000
00000000
00000000
00000000
00000000
00000000
00000000
00000000
00000000
00000000
00000000
00000000
00000000
00000000
00000000
00000000
00000000
00000000
03FFFF00
03FFFF80
03FFFFC0
03FFFFE0
000003F0
000001F0
000000F0
000000F0
000000F0
000000F0
00FFFFF0
01FFFFF0
03FFFFF0
07FFFFF0
0FC000F0
0F8000F0
0F0000F0
0F0000F0
0F0000F0
0F0000F0
0F0000F0
0F0000F0
0F8000F0
0FC000F0
07FFFFF0
03FFFFF0
01FFFFF0
00FFFFF0
00000000
00000000
00000000
00000000
00000000
00000000
00000000
00000000
00000000
00000000
00000000
00000000
ENDCHAR
STARTCHAR 0x0062
ENCODING 98
SWIDTH 698 0
DWIDTH 32 0
BBX 32 64 0 -12
BITMAP
00000000
00000000
00000000
00000000
00000000
00000000
00000000
00000000
00000000
00000000
00000000
00000000
0F000000
0F000000
0F000000
0F000000
0F000000
0F000000
0F000000
0F000000
0F000000
0F000000
0F000000
0F000000
0FFFFF00
0FFFFF80
0FFFFFC0
0FFFFFE0
0F0003F0
0F0001F0
0F0000F0
0F0000F0
0F0000F0
0F0000F0
0F0000F0
0F0000F0
0F0000F0
0F0000F0
0F0000F0
0F0000F0
0F0000F0
0F0000F0
0F0000F0
0F0000F0
0F0000F0
0F0000F0
0F0001F0
0F0003F0
0FFFFFE0
0FFFFFC0
0FFFFF80
0FFFFF00
00000000
00000000
00000000
00000000
00000000
00000000
00000000
00000000
00000000
00000000
00000000
00000000
ENDCHAR
STARTCHAR 0x0063
ENCODING 99
SWIDTH 698 0
DWIDTH 32 0
BBX 32 64 0 -12
BITMAP
00000000
00000000
00000000
00000000
00000000
00000000
00000000
00000000
00000000
00000000
00000000
00000000
00000000
00000000
00000000
00000000
00000000
00000000
00000000
00000000
00000000
00000000
00000000
00000000
00FFFFF0
01FFFFF0
03FFFFF0
07FFFFF0
0FC000F0
0F8000F0
0F0000F0
0F0000F0
0F000000
0F000000
0F000000
0F000000
0F000000
0F000000
0F000000
0F000000
0F000000
0F000000
0F000000
0F000000
0F000000
0F000000
0F800000
0FC00000
07FFFFF0
03FFFFF0
01FFFFF0
00FFFFF0
00000000
00000000
00000000
00000000
00000000
00000000
00000000
00000000
00000000
00000000
00000000
00000000
ENDCHAR
STARTCHAR 0x0064
ENCODING 100
SWIDTH 698 0
DWIDTH 32 0
BBX 32 64 0 -12
BITMAP
00000000
00000000
00000000
00000000
00000000
00000000
00000000
00000000
00000000
00000000
00000000
00000000
000000F0
000000F0
000000F0
000000F0
000000F0
000000F0
000000F0
000000F0
000000F0
000000F0
000000F0
000000F0
00FFFFF0
01FFFFF0
03FFFFF0
07FFFFF0
0FC000F0
0F8000F0
0F0000F0
0F0000F0
0F0000F0
0F0000F0
0F0000F0
0F0000F0
0F0000F0
0F0000F0
0F0000F0
0F0000F0
0F0000F0
0F0000F0
0F0000F0
0F0000F0
0F0000F0
0F0000F0
0F8000F0
0FC000F0
07FFFFF0
03FFFFF0
01FFFFF0
00FFFFF0
00000000
00000000
00000000
00000000
00000000
00000000
00000000
00000000
00000000
00000000
00000000
00000000
ENDCHAR
STARTCHAR 0x0065
ENCODING 101
SWIDTH 698 0
DWIDTH 32 0
BBX 32 64 0 -12
BITMAP
00000000
00000000
00000000
00000000
00000000
00000000
00000000
00000000
00000000
00000000
00000000
00000000
00000000
00000000
00000000
00000000
00000000
00000000
00000000
00000000
00000000
00000000
00000000
00000000
00FFFFF0
01FFFFF0
03FFFFF0
07FFFFF0
0FC000F0
0F8000F0
0F0000F0
0F0000F0
0F0000F0
0F0000F0
0F0000F0
0F0000F0
0FFFFFF0
0FFFFFF0
0FFFFFF0
0FFFFFF0
0F000000
0F000000
0F000000
0F000000
0F000000
0F000000
0F800000
0FC00000
07FFFFF0
03FFFFF0
01FFFFF0
00FFFFF0
00000000
00000000
00000000
00000000
00000000
00000000
00000000
00000000
00000000
00000000
00000000
00000000
ENDCHAR
STARTCHAR 0x0066
ENCODING 102
SWIDTH 698 0
DWIDTH 32 0
BBX 32 64 0 -12
BITMAP
00000000
00000000
00000000
00000000
00000000
00000000
00000000
00000000
00000000
00000000
00000000
00000000
0003FFC0
0007FFC0
000FFFC0
001FFFC0
003F0000
003E0000
003C0000
003C0000
003C0000
003C0000
003C0000
003C0000
003C0000
003C0000
003C0000
003C0000
03FFFC00
03FFFC00
03FFFC00
03FFFC00
003C0000
003C0000
003C0000
003C0000
003C0000
003C0000
003C0000
003C0000
003C0000
003C0000
003C0000
003C0000
003C0000
003C0000
003C0000
003C0000
003C0000
003C0000
003C0000
003C0000
00000000
00000000
00000000
00000000
00000000
00000000
00000000
00000000
00000000
00000000
00000000
00000000
ENDCHAR
STARTCHAR 0x0067
ENCODING 103
SWIDTH 698 0
DWIDTH 32 0
BBX 32 64 0 -12
BITMAP
00000000
00000000
00000000
00000000
00000000
00000000
00000000
00000000
00000000
00000000
00000000
00000000
00000000
00000000
00000000
00000000
00000000
00000000
00000000
00000000
00000000
00000000
00000000
00000000
00FFFFF0
01FFFFF0
03FFFFF0
07FFFFF0
0FC000F0
0F8000F0
0F0000F0
0F0000F0
0F0000F0
0F0000F0
0F0000F0
0F0000F0
0F0000F0
0F0000F0
0F0000F0
0F0000F0
0F0000F0
0F0000F0
0F0000F0
0F0000F0
0F0000F0
0F0000F0
0F8001E0
0FC003C0
07FFFF80
03FFFF00
01FFFF00
00FFFF80
000003C0
000001E0
000000F0
000000F0
000000F0
000000F0
000001F0
000003F0
0FFFFFE0
0FFFFFC0
0FFFFF80
0FFFFF00
ENDCHAR
STARTCHAR 0x0068
ENCODING 104
SWIDTH 698 0
DWIDTH 32 0
BBX 32 64 0 -12
BITMAP
00000000
00000000
00000000
00000000
00000000
00000000
00000000
00000000
00000000
00000000
00000000
00000000
0F000000
0F000000
0F000000
0F000000
0F000000
0F000000
0F000000
0F000000
0F000000
0F000000
0F000000
0F000000
0FFFFF00
0FFFFF80
0FFFFFC0
0FFFFFE0
0F0003F0
0F0001F0
0F0000F0
0F0000F0
0F0000F0
0F0000F0
0F0000F0
0F0000F0
0F0000F0
0F0000F0
0F0000F0
0F0000F0
0F0000F0
0F0000F0
0F0000F0
0F0000F0
0F0000F0
0F0000F0
0F0000F0
0F0000F0
0F0000F0
0F0000F0
0F0000F0
0F0000F0
00000000
00000000
00000000
00000000
00000000
00000000
00000000
00000000
00000000
00000000
00000000
00000000
ENDCHAR
STARTCHAR 0x0069
ENCODING 105
SWIDTH 698 0
DWIDTH 32 0
BBX 32 64 0 -12
BITMAP
00000000
00000000
00000000
00000000
00000000
00000000
00000000
00000000
00000000
00000000
00000000
00000000
0003C000
0003C000
0003C000
0003C000
0003C000
0003C000
00000000
00000000
00000000
00000000
00000000
00000000
0003C000
0003C000
0003C000
0003C000
0003C000
0003C000
0003C000
0003C000
0003C000
0003C000
0003C000
0003C000
0003C000
0003C000
0003C000
0003C000
0003C000
0003C000
0003C000
0003C000
0003C000
0003C000
0003C000
0003C000
0003C000
0003C000
0003C000
0003C000
00000000
00000000
00000000
00000000
00000000
00000000
00000000
00000000
00000000
00000000
00000000
00000000
ENDCHAR
STARTCHAR 0x006A
ENCODING 106
SWIDTH 698 0
DWIDTH 32 0
BBX 32 64 0 -12
BITMAP
00000000
00000000
00000000
00000000
00000000
00000000
00000000
00000000
00000000
00000000
00000000
00000000
0003C000
0003C000
0003C000
0003C000
0003C000
0003C000
00000000
00000000
00000000
00000000
00000000
00000000
0003C000
0003C000
0003C000
0003C000
0003C000
0003C000
0003C000
0003C000
0003C000
0003C000
0003C000
0003C000
0003C000
0003C000
0003C000
0003C000
0003C000
0003C000
0003C000
0003C000
0003C000
0003C000
0003C000
0003C000
0003C000
0003C000
0003C000
0003C000
0003C000
0003C000
0003C000
0003C000
0003C000
0003C000
0007C000
000FC000
03FF8000
03FF0000
03FE0000
03FC0000
ENDCHAR
STARTCHAR 0x006B
ENCODING 107
SWIDTH 698 0
DWIDTH 32 0
BBX 32 64 0 -12
BITMAP
00000000
00000000
00000000
00000000
00000000
00000000
00000000
00000000
00000000
00000000
00000000
00000000
0F000000
0F000000
0F000000
0F000000
0F000000
0F000000
0F000000
0F000000
0F000000
0F000000
0F000000
0F000000
0F001C00
0F003C00
0F007C00
0F00F800
0F01F000
0F03E000
0F07C000
0F0F8000
0F1F0000
0F3E0000
0FFC0000
0FFC0000
0FFC0000
0FFC0000
0F3E0000
0F1F0000
0F0F8000
0F07C000
0F03E000
0F01F000
0F00F800
0F007C00
0F003E00
0F001F00
0F000F80
0F0007C0
0F0003C0
0F0003C0
00000000
00000000
00000000
00000000
00000000
00000000
00000000
00000000
00000000
00000000
00000000
00000000
ENDCHAR
STARTCHAR 0x006C
ENCODING 108
SWIDTH 698 0
DWIDTH 32 0
BBX 32 64 0 -12
BITMAP
00000000
00000000
00000000
00000000
00000000
00000000
00000000
00000000
00000000
00000000
00000000
00000000
003C0000
003C0000
003C0000
003C0000
003C0000
003C0000
003C0000
003C0000
003C0000
003C0000
003C0000
003C0000
003C0000
003C0000
003C0000
003C0000
003C0000
003C0000
003C0000
003C0000
003C0000
003C0000
003C0000
003C0000
003C0000
003C0000
003C0000
003C0000
003C0000
003C0000
003C0000
003C0000
003C0000
003C0000
003E0000
003F0000
001FFFC0
000FFFC0
0007FFC0
0003FFC0
00000000
00000000
00000000
00000000
00000000
00000000
00000000
00000000
00000000
00000000
00000000
00000000
ENDCHAR
STARTCHAR 0x006D
ENCODING 109
SWIDTH 698 0
DWIDTH 32 0
BBX 32 64 0 -12
BITMAP
00000000
00000000
00000000
00000000
00000000
00000000
00000000
00000000
00000000
00000000
00000000
00000000
00000000
00000000
00000000
00000000
00000000
00000000
00000000
00000000
00000000
00000000
00000000
00000000
0FFC3F00
0FFC3F80
0FFC3FC0
0FFC3FE0
0F03C3F0
0F03C1F0
0F03C0F0
0F03C0F0
0F03C0F0
0F03C0F0
0F03C0F0
0F03C0F0
0F03C0F0
0F03C0F0
0F03C0F0
0F03C0F0
0F03C0F0
0F03C0F0
0F03C0F0
0F03C0F0
0F0000F0
0F0000F0
0F0000F0
0F0000F0
0F0000F0
0F0000F0
0F0000F0
0F0000F0
00000000
00000000
00000000
00000000
00000000
00000000
00000000
00000000
00000000
00000000
00000000
00000000
ENDCHAR
STARTCHAR 0x006E
ENCODING 110
SWIDTH 698 0
DWIDTH 32 0
BBX 32 64 0 -12
BITMAP
00000000
00000000
00000000
00000000
00000000
00000000
00000000
00000000
00000000
00000000
00000000
00000000
00000000
00000000
00000000
00000000
00000000
00000000
00000000
00000000
00000000
00000000
00000000
00000000
0FFFFF00
0FFFFF80
0FFFFFC0
0FFFFFE0
0F0003F0
0F0001F0
0F0000F0
0F0000F0
0F0000F0
0F0000F0
0F0000F0
0F0000F0
0F0000F0
0F0000F0
0F0000F0
0F0000F0
0F0000F0
0F0000F0
0F0000F0
0F0000F0
0F0000F0
0F0000F0
0F0000F0
0F0000F0
0F0000F0
0F0000F0
0F0000F0
0F0000F0
00000000
00000000
00000000
00000000
00000000
00000000
00000000
00000000
00000000
00000000
00000000
00000000
ENDCHAR
STARTCHAR 0x006F
ENCODING 111
SWIDTH 698 0
DWIDTH 32 0
BBX 32 64 0 -12
BITMAP
00000000
00000000
00000000
00000000
00000000
00000000
00000000
00000000
00000000
00000000
00000000
00000000
00000000
00000000
00000000
00000000
00000000
00000000
00000000
00000000
00000000
00000000
00000000
00000000
00FFFF00
01FFFF80
03FFFFC0
07FFFFE0
0FC003F0
0F8001F0
0F0000F0
0F0000F0
0F0000F0
0F0000F0
0F0000F0
0F0000F0
0F0000F0
0F0000F0
0F0000F0
0F0000F0
0F0000F0
0F0000F0
0F0000F0
0F0000F0
0F0000F0
0F0000F0
0F8001F0
0FC003F0
07FFFFE0
03FFFFC0
01FFFF80
00FFFF00
00000000
00000000
00000000
00000000
00000000
00000000
00000000
00000000
00000000
00000000
00000000
00000000
ENDCHAR
STARTCHAR 0x0070
ENCODING 112
SWIDTH 698 0
DWIDTH 32 0
BBX 32 64 0 -12
BITMAP
00000000
00000000
00000000
00000000
00000000
00000000
00000000
00000000
00000000
00000000
00000000
00000000
00000000
00000000
00000000
00000000
00000000
00000000
00000000
00000000
00000000
00000000
00000000
00000000
0FFFFF00
0FFFFF80
0FFFFFC0
0FFFFFE0
0F0003F0
0F0001F0
0F0000F0
0F0000F0
0F0000F0
0F0000F0
0F0000F0
0F0000F0
0F0000F0
0F0000F0
0F0000F0
0F0000F0
0F0000F0
0F0000F0
0F0000F0
0F0000F0
0F0000F0
0F0000F0
0F0001F0
0F0003F0
0FFFFFE0
0FFFFFC0
0FFFFF80
0FFFFF00
0F000000
0F000000
0F000000
0F000000
0F000000
0F000000
0F000000
0F000000
0F000000
0F000000
0F000000
0F000000
ENDCHAR
STARTCHAR 0x0071
ENCODING 113
SWIDTH 698 0
DWIDTH 32 0
BBX 32 64 0 -12
BITMAP
00000000
00000000
00000000
00000000
00000000
00000000
00000000
00000000
00000000
00000000
00000000
00000000
00000000
00000000
00000000
00000000
00000000
00000000
00000000
00000000
00000000
00000000
00000000
00000000
00FFFFF0
01FFFFF0
03FFFFF0
07FFFFF0
0FC000F0
0F8000F0
0F0000F0
0F0000F0
0F0000F0
0F0000F0
0F0000F0
0F0000F0
0F0000F0
0F0000F0
0F0000F0
0F0000F0
0F0000F0
0F0000F0
0F0000F0
0F0000F0
0F0000F0
0F0000F0
0F8000F0
0FC000F0
07FFFFF0
03FFFFF0
01FFFFF0
00FFFFF0
000000F0
000000F0
000000F0
000000F0
000000F0
000000F0
000000F0
000000F0
000000F0
000000F0
000000F0
000000F0
ENDCHAR
STARTCHAR 0x0072
ENCODING 114
SWIDTH 698 0
DWIDTH 32 0
BBX 32 64 0 -12
BITMAP
00000000
00000000
00000000
00000000
00000000
00000000
00000000
00000000
00000000
00000000
00000000
00000000
00000000
00000000
00000000
00000000
00000000
00000000
00000000
00000000
00000000
00000000
00000000
00000000
00FFFFF0
01FFFFF0
03FFFFF0
07FFFFF0
0FC000F0
0F8000F0
0F0000F0
0F0000F0
0F000000
0F000000
0F000000
0F000000
0F000000
0F000000
0F000000
0F000000
0F000000
0F000000
0F000000
0F000000
0F000000
0F000000
0F000000
0F000000
0F000000
0F000000
0F000000
0F000000
00000000
00000000
00000000
00000000
00000000
00000000
00000000
00000000
00000000
00000000
00000000
00000000
ENDCHAR
STARTCHAR 0x0073
ENCODING 115
SWIDTH 698 0
DWIDTH 32 0
BBX 32 64 0 -12
BITMAP
00000000
00000000
00000000
00000000
00000000
00000000
00000000
00000000
00000000
00000000
00000000
00000000
00000000
00000000
00000000
00000000
00000000
00000000
00000000
00000000
00000000
00000000
00000000
00000000
00FFFFF0
01FFFFF0
03FFFFF0
07FFFFF0
0FC00000
0F800000
0F000000
0F000000
0F000000
0F000000
0F800000
0FC00000
07FFFF00
03FFFF80
01FFFFC0
00FFFFE0
000003F0
000001F0
000000F0
000000F0
000000F0
000000F0
000001F0
000003F0
0FFFFFE0
0FFFFFC0
0FFFFF80
0FFFFF00
00000000
00000000
00000000
00000000
00000000
00000000
00000000
00000000
00000000
00000000
00000000
00000000
ENDCHAR
STARTCHAR 0x0074
ENCODING 116
SWIDTH 698 0
DWIDTH 32 0
BBX 32 64 0 -12
BITMAP
00000000
00000000
00000000
00000000
00000000
00000000
00000000
00000000
00000000
00000000
00000000
00000000
003C0000
003C0000
003C0000
003C0000
003C0000
003C0000
003C0000
003C0000
003C0000
003C0000
003C0000
003C0000
03FFFC00
03FFFC00
03FFFC00
03FFFC00
003C0000
003C0000
003C0000
003C0000
003C0000
003C0000
003C0000
003C0000
003C0000
003C0000
003C0000
003C0000
003C0000
003C0000
003C0000
003C0000
003C0000
003C0000
003E0000
003F0000
001FFFC0
000FFFC0
0007FFC0
0003FFC0
00000000
00000000
00000000
00000000
00000000
00000000
00000000
00000000
00000000
00000000
00000000
00000000
ENDCHAR
STARTCHAR 0x0075
ENCODING 117
SWIDTH 698 0
DWIDTH 32 0
BBX 32 64 0 -12
BITMAP
00000000
00000000
00000000
00000000
00000000
00000000
00000000
00000000
00000000
00000000
00000000
00000000
00000000
00000000
00000000
00000000
00000000
00000000
00000000
00000000
00000000
00000000
00000000
00000000
0F0000F0
0F0000F0
0F0000F0
0F0000F0
0F0000F0
0F0000F0
0F0000F0
0F0000F0
0F0000F0
0F0000F0
0F0000F0
0F0000F0
0F0000F0
0F0000F0
0F0000F0
0F0000F0
0F0000F0
0F0000F0
0F0000F0
0F0000F0
0F0000F0
0F0000F0
0F8000F0
0FC000F0
07FFFFF0
03FFFFF0
01FFFFF0
00FFFFF0
00000000
00000000
00000000
00000000
00000000
00000000
00000000
00000000
00000000
00000000
00000000
00000000
ENDCHAR
STARTCHAR 0x0076
ENCODING 118
SWIDTH 698 0
DWIDTH 32 0
BBX 32 64 0 -12
BITMAP
00000000
00000000
00000000
00000000
00000000
00000000
00000000
00000000
00000000
00000000
00000000
00000000
00000000
00000000
00000000
00000000
00000000
00000000
00000000
00000000
00000000
00000000
00000000
00000000
0F0000F0
0F0000F0
0F0000F0
0F0000F0
0F0000F0
0F0000F0
0F0000F0
0F0000F0
0F0000F0
0F0000F0
0F0000F0
0F0000F0
0F0000F0
0F0000F0
0F0000F0
0F0000F0
078001E0
078001E0
03C003C0
03E007C0
01F00F80
00F81F00
007C3E00
003E7C00
001FF800
000FF000
0007E000
0003C000
00000000
00000000
00000000
00000000
00000000
00000000
00000000
00000000
00000000
00000000
00000000
00000000
ENDCHAR
STARTCHAR 0x0077
ENCODING 119
SWIDTH 698 0
DWIDTH 32 0
BBX 32 64 0 -12
BITMAP
00000000
00000000
00000000
00000000
00000000
00000000
00000000
00000000
00000000
00000000
00000000
00000000
00000000
00000000
00000000
00000000
00000000
00000000
00000000
00000000
00000000
00000000
00000000
00000000
0F0000F0
0F0000F0
0F0000F0
0F0000F0
0F0000F0
0F0000F0
0F0000F0
0F0000F0
0F03C0F0
0F03C0F0
0F03C0F0
0F03C0F0
0F03C0F0
0F03C0F0
0F03C0F0
0F03C0F0
0F03C0F0
0F03C0F0
0F03C0F0
0F03C0F0
0F03C0F0
0F03C0F0
0F83C0F0
0FC3C0F0
07FC3FF0
03FC3FF0
01FC3FF0
00FC3FF0
00000000
00000000
00000000
00000000
00000000
00000000
00000000
00000000
00000000
00000000
00000000
00000000
ENDCHAR
STARTCHAR 0x0078
ENCODING 120
SWIDTH 698 0
DWIDTH 32 0
BBX 32 64 0 -12
BITMAP
00000000
00000000
00000000
00000000
00000000
00000000
00000000
00000000
00000000
00000000
00000000
00000000
00000000
00000000
00000000
00000000
00000000
00000000
00000000
00000000
00000000
00000000
00000000
00000000
0F0000F0
0F0000F0
0F0000F0
0F8001F0
07C003E0
03E007C0
01F00F80
00F81F00
007C3E00
003E7C00
001FF800
000FF000
000FF000
001FF800
003E7C00
007C3E00
00F81F00
01F00F80
03E007C0
03C003C0
07C003E0
07C003E0
0F8001F0
0F8001F0
0F0000F0
0F0000F0
0F0000F0
0F0000F0
00000000
00000000
00000000
00000000
00000000
00000000
00000000
00000000
00000000
00000000
00000000
00000000
ENDCHAR
STARTCHAR 0x0079
ENCODING 121
SWIDTH 698 0
DWIDTH 32 0
BBX 32 64 0 -12
BITMAP
00000000
00000000
00000000
00000000
00000000
00000000
00000000
00000000
00000000
00000000
00000000
00000000
00000000
00000000
00000000
00000000
00000000
00000000
00000000
00000000
00000000
00000000
00000000
00000000
0F0000F0
0F0000F0
0F0000F0
0F0000F0
0F0000F0
0F0000F0
0F0000F0
0F0000F0
0F0000F0
0F0000F0
0F0000F0
0F0000F0
0F0000F0
0F0000F0
0F0000F0
0F0000F0
0F0000F0
0F0000F0
0F0000F0
0F0000F0
0F0000F0
0F0000F0
0F8000F0
0FC000F0
07FFFFF0
03FFFFF0
01FFFFF0
00FFFFF0
000000F0
000000F0
000000F0
000000F0
000000F0
000000F0
000001F0
000003F0
0FFFFFE0
0FFFFFC0
0FFFFF80
0FFFFF00
ENDCHAR
STARTCHAR 0x007A
ENCODING 122
SWIDTH 698 0
DWIDTH 32 0
BBX 32 64 0 -12
BITMAP
00000000
00000000
00000000
00000000
00000000
00000000
00000000
00000000
00000000
00000000
00000000
00000000
00000000
00000000
00000000
00000000
00000000
00000000
00000000
00000000
00000000
00000000
00000000
00000000
0FFFFFF0
0FFFFFF0
0FFFFFF0
0FFFFFF0
000000F0
000001F0
000003E0
000007C0
00000F80
00001F00
00003E00
00007C00
0000F800
0001F000
0003E000
0007C000
000F8000
001F0000
003E0000
007C0000
00F80000
01F00000
03E00000
07C00000
0FFFFFF0
0FFFFFF0
0FFFFFF0
0FFFFFF0
00000000
00000000
00000000
00000000
00000000
00000000
00000000
00000000
00000000
00000000
00000000
00000000
ENDCHAR
STARTCHAR 0x007B
ENCODING 123
SWIDTH 698 0
DWIDTH 32 0
BBX 32 64 0 -12
BITMAP
00000000
00000000
00000000
00000000
0000FFF0
0001FFF0
0003FFF0
0007FFF0
000FC000
000F8000
000F0000
000F0000
000F0000
000F0000
000F0000
000F0000
000F0000
000F0000
000F0000
000F0000
000F0000
000F0000
000F0000
000F0000
000F0000
001F0000
003F0000
007E0000
0FFC0000
0FF80000
0FF00000
0FF00000
0FF00000
0FF00000
0FF80000
0FFC0000
007E0000
003F0000
001F0000
000F0000
000F0000
000F0000
000F0000
000F0000
000F0000
000F0000
000F0000
000F0000
000F0000
000F0000
000F0000
000F0000
000F0000
000F0000
000F8000
000FC000
0007FFF0
0003FFF0
0001FFF0
0000FFF0
00000000
00000000
00000000
00000000
ENDCHAR
STARTCHAR 0x007C
ENCODING 124
SWIDTH 698 0
DWIDTH 32 0
BBX 32 64 0 -12
BITMAP
00000000
00000000
00000000
00000000
00000000
00000000
00000000
00000000
0003C000
0003C000
0003C000
0003C000
0003C000
0003C000
0003C000
0003C000
0003C000
0003C000
0003C000
0003C000
0003C000
0003C000
0003C000
0003C000
0003C000
0003C000
0003C000
0003C000
0003C000
0003C000
0003C000
0003C000
0003C000
0003C000
0003C000
0003C000
0003C000
0003C000
0003C000
0003C000
0003C000
0003C000
0003C000
0003C000
0003C000
0003C000
0003C000
0003C000
0003C000
0003C000
0003C000
0003C000
0003C000
0003C000
0003C000
0003C000
00000000
00000000
00000000
00000000
00000000
00000000
00000000
00000000
ENDCHAR
STARTCHAR 0x007D
ENCODING 125
SWIDTH 698 0
DWIDTH 32 0
BBX 32 64 0 -12
BITMAP
00000000
00000000
00000000
00000000
0FFF0000
0FFF8000
0FFFC000
0FFFE000
0003F000
0001F000
0000F000
0000F000
0000F000
0000F000
0000F000
0000F000
0000F000
0000F000
0000F000
0000F000
0000F000
0000F000
0000F000
0000F000
0000F000
0000F800
0000FC00
00007E00
00003FF0
00001FF0
00000FF0
00000FF0
00000FF0
00000FF0
00001FF0
00003FF0
00007E00
0000FC00
0000F800
0000F000
0000F000
0000F000
0000F000
0000F000
0000F000
0000F000
0000F000
0000F000
0000F000
0000F000
0000F000
0000F000
0000F000
0000F000
0001F000
0003F000
0FFFE000
0FFFC000
0FFF8000
0FFF0000
00000000
00000000
00000000
00000000
ENDCHAR
STARTCHAR 0x007E
ENCODING 126
SWIDTH 698 0
DWIDTH 32 0
BBX 32 64 0 -12
BITMAP
00000000
00000000
00000000
00000000
00000000
00000000
00000000
00000000
00FC00F0
01FE00F0
03FF00F0
07FF80F0
0FCFC1F0
0F87E3F0
0F03FFE0
0F01FFC0
0F00FF80
0F007F00
00000000
00000000
00000000
00000000
00000000
00000000
00000000
00000000
00000000
00000000
00000000
00000000
00000000
00000000
00000000
00000000
00000000
00000000
00000000
00000000
00000000
00000000
00000000
00000000
00000000
00000000
00000000
00000000
00000000
00000000
00000000
00000000
00000000
00000000
00000000
00000000
00000000
00000000
00000000
00000000
00000000
00000000
00000000
00000000
00000000
00000000
ENDCHAR
STARTCHAR 0x007F
ENCODING 127
SWIDTH 698 0
DWIDTH 32 0
BBX 32 64 0 -12
BITMAP
00000000
00000000
00000000
00000000
00000000
00000000
00000000
00000000
00000000
00000000
00000000
00000000
00000000
00000000
00000000
00000000
00000000
00000000
00000000
00000000
00000000
00000000
00000000
00000000
00000000
00000000
00000000
00000000
00000000
00000000
00000000
00000000
00000000
00000000
00000000
00000000
00000000
00000000
00000000
00000000
00000000
00000000
00000000
00000000
00000000
00000000
00000000
00000000
00000000
00000000
00000000
00000000
00000000
00000000
00000000
00000000
00000000
00000000
00000000
00000000
00000000
00000000
00000000
00000000
ENDCHAR
STARTCHAR 0x00A0
ENCODING 160
SWIDTH 698 0
DWIDTH 32 0
BBX 32 64 0 -12
BITMAP
00000000
00000000
00000000
00000000
00000000
00000000
00000000
00000000
00000000
00000000
00000000
00000000
00000000
00000000
00000000
00000000
00000000
00000000
00000000
00000000
00000000
00000000
00000000
00000000
00000000
00000000
00000000
00000000
00000000
00000000
00000000
00000000
00000000
00000000
00000000
00000000
00000000
00000000
00000000
00000000
00000000
00000000
00000000
00000000
00000000
00000000
00000000
00000000
00000000
00000000
00000000
00000000
00000000
00000000
00000000
00000000
00000000
00000000
00000000
00000000
00000000
00000000
00000000
00000000
ENDCHAR
STARTCHAR 0x00A1
ENCODING 161
SWIDTH 698 0
DWIDTH 32 0
BBX 32 64 0 -12
BITMAP
00000000
00000000
00000000
00000000
00000000
00000000
00000000
00000000
00000000
00000000
00000000
00000000
0003C000
0003C000
0003C000
0003C000
00000000
00000000
00000000
00000000
00000000
00000000
00000000
00000000
0003C000
0003C000
0003C000
0003C000
0003C000
0003C000
0003C000
0003C000
0003C000
0003C000
0003C000
0003C000
0003C000
0003C000
0003C000
0003C000
0003C000
0003C000
0003C000
0003C000
0003C000
0003C000
0003C000
0003C000
0003C000
0003C000
0003C000
0003C000
00000000
00000000
00000000
00000000
00000000
00000000
00000000
00000000
00000000
00000000
00000000
00000000
ENDCHAR
STARTCHAR 0x00A2
ENCODING 162
SWIDTH 698 0
DWIDTH 32 0
BBX 32 64 0 -12
BITMAP
00000000
00000000
00000000
00000000
00000000
00000000
00000000
00000000
00000000
00000000
00000000
00000000
00000000
00000000
00000000
00000000
00000000
00000000
00000000
00000000
0000F000
0000F000
0000F000
0000F000
00FFFFF0
01FFFFF0
03FFFFF0
07FFFFF0
0FC0F0F0
0F80F0F0
0F00F0F0
0F00F0F0
0F00F000
0F00F000
0F00F000
0F00F000
0F00F000
0F00F000
0F00F000
0F00F000
0F00F000
0F00F000
0F00F000
0F00F000
0F00F000
0F00F000
0F80F000
0FC0F000
07FFFFF0
03FFFFF0
01FFFFF0
00FFFFF0
0000F000
0000F000
0000F000
0000F000
00000000
00000000
00000000
00000000
00000000
00000000
00000000
00000000
ENDCHAR
STARTCHAR 0x00A3
ENCODING 163
SWIDTH 698 0
DWIDTH 32 0
BBX 32 64 0 -12
BITMAP
00000000
00000000
00000000
00000000
00000000
00000000
00000000
00000000
00000000
00000000
00000000
00000000
000FFC00
001FFE00
003FFF00
007FFF80
00FC0FC0
00F807C0
00F003C0
00F003C0
00F00000
00F00000
00F00000
00F00000
00F00000
00F00000
00F00000
00F00000
00F00000
00F00000
0FFFFF00
0FFFFF00
0FFFFF00
0FFFFF00
00F00000
00F00000
00F00000
00F00000
00F00000
00F00000
00F00000
00F00000
00F00000
00F00000
01E00000
01E00000
03C00000
03C00000
0FFFFFF0
0FFFFFF0
0FFFFFF0
0FFFFFF0
00000000
00000000
00000000
00000000
00000000
00000000
00000000
00000000
00000000
00000000
00000000
00000000
ENDCHAR
STARTCHAR 0x00A4
ENCODING 164
SWIDTH 698 0
DWIDTH 32 0
BBX 32 64 0 -12
BITMAP
00000000
00000000
00000000
00000000
00000000
00000000
00000000
00000000
00000000
00000000
00000000
00000000
00000000
00000000
00000000
00000000
00000000
00000000
03F00FC0
01F81F80
00FC3F00
007E7E00
003FFC00
007FFE00
00FFFF00
01FFFF80
03F00FC0
03E007C0
03C003C0
03C003C0
03C003C0
03C003C0
03C003C0
03C003C0
03C003C0
03C003C0
03E007C0
03F00FC0
01FFFF80
00FFFF00
007FFE00
003FFC00
007E7E00
00FC3F00
01F81F80
03F00FC0
00000000
00000000
00000000
00000000
00000000
00000000
00000000
00000000
00000000
00000000
00000000
00000000
00000000
00000000
00000000
00000000
00000000
00000000
ENDCHAR
STARTCHAR 0x00A5
ENCODING 165
SWIDTH 698 0
DWIDTH 32 0
BBX 32 64 0 -12
BITMAP
00000000
00000000
00000000
00000000
00000000
00000000
00000000
00000000
00000000
00000000
00000000
00000000
0F0000F0
0F0000F0
078001E0
078001E0
03C003C0
03C003C0
01E00780
01E00780
00F00F00
00F00F00
00781E00
00781E00
003C3C00
003C3C00
001E7800
001E7800
000FF000
000FF000
0007E000
0007E000
0003C000
0003C000
0003C000
0003C000
03FFFFC0
03FFFFC0
03FFFFC0
03FFFFC0
0003C000
0003C000
0003C000
0003C000
03FFFFC0
03FFFFC0
03FFFFC0
03FFFFC0
0003C000
0003C000
0003C000
0003C000
00000000
00000000
00000000
00000000
00000000
00000000
00000000
00000000
00000000
00000000
00000000
00000000
ENDCHAR
STARTCHAR 0x00A6
ENCODING 166
SWIDTH 698 0
DWIDTH 32 0
BBX 32 64 0 -12
BITMAP
00000000
00000000
00000000
00000000
00000000
00000000
00000000
00000000
0003C000
0003C000
0003C000
0003C000
0003C000
0003C000
0003C000
0003C000
0003C000
0003C000
0003C000
0003C000
0003C000
0003C000
0003C000
0003C000
0003C000
0003C000
0003C000
0003C000
00000000
00000000
00000000
00000000
00000000
00000000
00000000
00000000
0003C000
0003C000
0003C000
0003C000
0003C000
0003C000
0003C000
0003C000
0003C000
0003C000
0003C000
0003C000
0003C000
0003C000
0003C000
0003C000
0003C000
0003C000
0003C000
0003C000
00000000
00000000
00000000
00000000
00000000
00000000
00000000
00000000
ENDCHAR
STARTCHAR 0x00A7
ENCODING 167
SWIDTH 698 0
DWIDTH 32 0
BBX 32 64 0 -12
BITMAP
00000000
00000000
00000000
00000000
00000000
00000000
00000000
00000000
003FFC00
007FFE00
00FFFF00
01FFFF00
03F03F00
03E01F00
03C00000
03C00000
03C00000
03C00000
03E00000
03F00000
01F80000
00FC0000
007FFC00
007FFE00
00FFFF00
01FFFF80
03F00FC0
03E007C0
03C003C0
03C003C0
03C003C0
03C003C0
03C003C0
03C003C0
03C003C0
03C003C0
03E007C0
03F00FC0
01FFFF80
00FFFF00
007FFE00
003FFE00
00003F00
00001F80
00000FC0
000007C0
000003C0
000003C0
000003C0
000003C0
00F807C0
00FC0FC0
00FFFF80
00FFFF00
007FFE00
003FFC00
00000000
00000000
00000000
00000000
00000000
00000000
00000000
00000000
ENDCHAR
STARTCHAR 0x00A8
ENCODING 168
SWIDTH 698 0
DWIDTH 32 0
BBX 32 64 0 -12
BITMAP
00000000
00000000
00000000
00000000
00000000
00000000
00000000
00000000
00000000
00000000
00000000
00000000
00000000
00000000
00F00F00
00F00F00
00F00F00
00F00F00
00F00F00
00F00F00
00000000
00000000
00000000
00000000
00000000
00000000
00000000
00000000
00000000
00000000
00000000
00000000
00000000
00000000
00000000
00000000
00000000
00000000
00000000
00000000
00000000
00000000
00000000
00000000
00000000
00000000
00000000
00000000
00000000
00000000
00000000
00000000
00000000
00000000
00000000
00000000
00000000
00000000
00000000
00000000
00000000
00000000
00000000
00000000
ENDCHAR
STARTCHAR 0x00A9
ENCODING 169
SWIDTH 698 0
DWIDTH 32 0
BBX 32 64 0 -12
BITMAP
00000000
00000000
00000000
00000000
00000000
00000000
00000000
00000000
00000000
00000000
00000000
00000000
00000000
00000000
00000000
00000000
00000000
00000000
00000000
00000000
00FFFF00
01FFFF80
03FFFFC0
07FFFFE0
0FC003F0
0F8001F0
0F0000F0
0F0000F0
0F07FCF0
0F0FFCF0
0F1FFCF0
0F3FFCF0
0F3E3CF0
0F3C3CF0
0F3C00F0
0F3C00F0
0F3C00F0
0F3C00F0
0F3C00F0
0F3E00F0
0F3FFCF0
0F1FFCF0
0F0FFCF0
0F07FCF0
0F0000F0
0F0000F0
0F8001F0
0FC003F0
07FFFFE0
03FFFFC0
01FFFF80
00FFFF00
00000000
00000000
00000000
00000000
00000000
00000000
00000000
00000000
00000000
00000000
00000000
00000000
ENDCHAR
STARTCHAR 0x00AA
ENCODING 170
SWIDTH 698 0
DWIDTH 32 0
BBX 32 64 0 -12
BITMAP
00000000
00000000
00000000
00000000
00000000
00000000
00000000
00000000
003FF000
003FF800
003FFC00
003FFE00
00003F00
00001F00
00000F00
00000F00
003FFF00
007FFF00
00FFFF00
00FFFF00
00F00F00
00F00F00
00F00F00
00F00F00
00FFFF00
00FFFF00
007FFF00
003FFF00
00000000
00000000
00000000
00000000
00FFFF00
00FFFF00
00FFFF00
00FFFF00
00000000
00000000
00000000
00000000
00000000
00000000
00000000
00000000
00000000
00000000
00000000
00000000
00000000
00000000
00000000
00000000
00000000
00000000
00000000
00000000
00000000
00000000
00000000
00000000
00000000
00000000
00000000
00000000
ENDCHAR
STARTCHAR 0x00AB
ENCODING 171
SWIDTH 698 0
DWIDTH 32 0
BBX 32 64 0 -12
BITMAP
00000000
00000000
00000000
00000000
00000000
00000000
00000000
00000000
00000000
00000000
00000000
00000000
00000000
00000000
00000000
00000000
00000000
00000000
00000000
00000000
00000000
00000000
00000000
00000000
0003F0FC
0007E1F8
000FC3F0
001F87E0
003F0FC0
007E1F80
00FC3F00
01F87E00
03F0FC00
07E1F800
0FC3F000
1F87E000
3F0FC000
3F0FC000
3F0FC000
3F0FC000
1F87E000
0FC3F000
07E1F800
03F0FC00
01F87E00
00FC3F00
007E1F80
003F0FC0
001F87E0
000FC3F0
0007E1F8
0003F0FC
00000000
00000000
00000000
00000000
00000000
00000000
00000000
00000000
00000000
00000000
00000000
00000000
ENDCHAR
STARTCHAR 0x00AC
ENCODING 172
SWIDTH 698 0
DWIDTH 32 0
BBX 32 64 0 -12
BITMAP
00000000
00000000
00000000
00000000
00000000
00000000
00000000
00000000
00000000
00000000
00000000
00000000
00000000
00000000
00000000
00000000
00000000
00000000
00000000
00000000
00000000
00000000
00000000
00000000
0FFFFFF0
0FFFFFF0
0FFFFFF0
0FFFFFF0
000000F0
000000F0
000000F0
000000F0
000000F0
000000F0
000000F0
000000F0
000000F0
000000F0
000000F0
000000F0
00000000
00000000
00000000
00000000
00000000
00000000
00000000
00000000
00000000
00000000
00000000
00000000
00000000
00000000
00000000
00000000
00000000
00000000
00000000
00000000
00000000
00000000
00000000
00000000
ENDCHAR
STARTCHAR 0x00AD
ENCODING 173
SWIDTH 698 0
DWIDTH 32 0
BBX 32 64 0 -12
BITMAP
00000000
00000000
00000000
00000000
00000000
00000000
00000000
00000000
00000000
00000000
00000000
00000000
00000000
00000000
00000000
00000000
00000000
00000000
00000000
00000000
00000000
00000000
00000000
00000000
00000000
00000000
00000000
00000000
00000000
00000000
00000000
00000000
03FFFFC0
03FFFFC0
03FFFFC0
03FFFFC0
00000000
00000000
00000000
00000000
00000000
00000000
00000000
00000000
00000000
00000000
00000000
00000000
00000000
00000000
00000000
00000000
00000000
00000000
00000000
00000000
00000000
00000000
00000000
00000000
00000000
00000000
00000000
00000000
ENDCHAR
STARTCHAR 0x00AE
ENCODING 174
SWIDTH 698 0
DWIDTH 32 0
BBX 32 64 0 -12
BITMAP
00000000
00000000
00000000
00000000
00000000
00000000
00000000
00000000
00000000
00000000
00000000
00000000
00000000
00000000
00000000
00000000
00FFFF00
01FFFF80
03FFFFC0
07FFFFE0
0FC003F0
0F8001F0
0F0000F0
0F0000F0
0F0FF0F0
0F1FF8F0
0F3FFCF0
0F3FFCF0
0F3C3CF0
0F3C3CF0
0F3FFCF0
0F3FFCF0
0F3FF8F0
0F3FF0F0
0F3C78F0
0F3C3CF0
0F3C3CF0
0F3C3CF0
0F3C3CF0
0F3C3CF0
0F0000F0
0F0000F0
0F8001F0
0FC003F0
07FFFFE0
03FFFFC0
01FFFF80
00FFFF00
00000000
00000000
00000000
00000000
00000000
00000000
00000000
00000000
00000000
00000000
00000000
00000000
00000000
00000000
00000000
00000000
ENDCHAR
STARTCHAR 0x00AF
ENCODING 175
SWIDTH 698 0
DWIDTH 32 0
BBX 32 64 0 -12
BITMAP
00000000
00000000
00000000
00000000
00FFFF00
00FFFF00
00FFFF00
00FFFF00
00000000
00000000
00000000
00000000
00000000
00000000
00000000
00000000
00000000
00000000
00000000
00000000
00000000
00000000
00000000
00000000
00000000
00000000
00000000
00000000
00000000
00000000
00000000
00000000
00000000
00000000
00000000
00000000
00000000
00000000
00000000
00000000
00000000
00000000
00000000
00000000
00000000
00000000
00000000
00000000
00000000
00000000
00000000
00000000
00000000
00000000
00000000
00000000
00000000
00000000
00000000
00000000
00000000
00000000
00000000
00000000
ENDCHAR
STARTCHAR 0x00B0
ENCODING 176
SWIDTH 698 0
DWIDTH 32 0
BBX 32 64 0 -12
BITMAP
00000000
00000000
00000000
00000000
00000000
00000000
00000000
00000000
00000000
00000000
000FF000
001FF800
003FFC00
007FFE00
00FC3F00
00F81F00
00F00F00
00F00F00
00F00F00
00F00F00
00F00F00
00F00F00
00F81F00
00FC3F00
007FFE00
003FFC00
001FF800
000FF000
00000000
00000000
00000000
00000000
00000000
00000000
00000000
00000000
00000000
00000000
00000000
00000000
00000000
00000000
00000000
00000000
00000000
00000000
00000000
00000000
00000000
00000000
00000000
00000000
00000000
00000000
00000000
00000000
00000000
00000000
00000000
00000000
00000000
00000000
00000000
00000000
ENDCHAR
STARTCHAR 0x00B1
ENCODING 177
SWIDTH 698 0
DWIDTH 32 0
BBX 32 64 0 -12
BITMAP
00000000
00000000
00000000
00000000
00000000
00000000
00000000
00000000
00000000
00000000
00000000
00000000
00000000
00000000
00000000
00000000
00000000
00000000
00000000
00000000
0003C000
0003C000
0003C000
0003C000
0003C000
0003C000
0003C000
0003C000
03FFFFC0
03FFFFC0
03FFFFC0
03FFFFC0
0003C000
0003C000
0003C000
0003C000
0003C000
0003C000
0003C000
0003C000
00000000
00000000
00000000
00000000
03FFFFC0
03FFFFC0
03FFFFC0
03FFFFC0
00000000
00000000
00000000
00000000
00000000
00000000
00000000
00000000
00000000
00000000
00000000
00000000
00000000
00000000
00000000
00000000
ENDCHAR
STARTCHAR 0x00B2
ENCODING 178
SWIDTH 698 0
DWIDTH 32 0
BBX 32 64 0 -12
BITMAP
00000000
00000000
00000000
00000000
00000000
00000000
00000000
00000000
00000000
00000000
000FF000
001FF800
003FFC00
007FFE00
00F81F00
00F00F00
00000F00
00000F00
00000F00
00001F00
00003E00
00007C00
0000F800
0001F000
0003E000
0007C000
000F8000
001F0000
003E0F00
007C0F00
00FFFF00
00FFFF00
00FFFF00
00FFFF00
00000000
00000000
00000000
00000000
00000000
00000000
00000000
00000000
00000000
00000000
00000000
00000000
00000000
00000000
00000000
00000000
00000000
00000000
00000000
00000000
00000000
00000000
00000000
00000000
00000000
00000000
00000000
00000000
00000000
00000000
ENDCHAR
STARTCHAR 0x00B3
ENCODING 179
SWIDTH 698 0
DWIDTH 32 0
BBX 32 64 0 -12
BITMAP
00000000
00000000
00000000
00000000
00000000
00000000
00000000
00000000
00000000
00000000
000FF000
001FF800
003FFC00
007FFE00
00F81F00
00F00F00
00000F00
00000F00
00000F00
00001F00
0003FE00
0003FC00
0003FC00
0003FE00
00001F00
00000F00
00000F00
00000F00
00F00F00
00F81F00
007FFE00
003FFC00
001FF800
000FF000
00000000
00000000
00000000
00000000
00000000
00000000
00000000
00000000
00000000
00000000
00000000
00000000
00000000
00000000
00000000
00000000
00000000
00000000
00000000
00000000
00000000
00000000
00000000
00000000
00000000
00000000
00000000
00000000
00000000
00000000
ENDCHAR
STARTCHAR 0x00B4
ENCODING 180
SWIDTH 698 0
DWIDTH 32 0
BBX 32 64 0 -12
BITMAP
00000000
00000000
00000000
00000000
00000000
00000000
00000000
00000000
00000700
00000F00
00001F00
00003F00
00007E00
0000FC00
0001F800
0003F000
0007E000
000FC000
000F8000
000F0000
00000000
00000000
00000000
00000000
00000000
00000000
00000000
00000000
00000000
00000000
00000000
00000000
00000000
00000000
00000000
00000000
00000000
00000000
00000000
00000000
00000000
00000000
00000000
00000000
00000000
00000000
00000000
00000000
00000000
00000000
00000000
00000000
00000000
00000000
00000000
00000000
00000000
00000000
00000000
00000000
00000000
00000000
00000000
00000000
ENDCHAR
STARTCHAR 0x00B5
ENCODING 181
SWIDTH 698 0
DWIDTH 32 0
BBX 32 64 0 -12
BITMAP
00000000
00000000
00000000
00000000
00000000
00000000
00000000
00000000
00000000
00000000
00000000
00000000
00000000
00000000
00000000
00000000
00000000
00000000
00000000
00000000
00000000
00000000
00000000
00000000
0F000F00
0F000F00
0F000F00
0F000F00
0F000F00
0F000F00
0F000F00
0F000F00
0F000F00
0F000F00
0F000F00
0F000F00
0F000F00
0F000F00
0F000F00
0F000F00
0F000F00
0F000F00
0F000F00
0F000F00
0F000F00
0F000F00
0F801F80
0FC03FC0
0FFFFFFC
0FFFFFFC
0F7FF9FC
0F3FF0FC
0F000000
0F000000
0F000000
0F000000
0F000000
0F000000
0F000000
0F000000
0F000000
0F000000
0F000000
0F000000
ENDCHAR
STARTCHAR 0x00B6
ENCODING 182
SWIDTH 698 0
DWIDTH 32 0
BBX 32 64 0 -12
BITMAP
00000000
00000000
00000000
00000000
00000000
00000000
00000000
00000000
00000000
00000000
00000000
00000000
00FFFFF0
01FFFFF0
03FFFFF0
07FFFFF0
0FC3C0F0
0F83C0F0
0F03C0F0
0F03C0F0
0F03C0F0
0F03C0F0
0F03C0F0
0F03C0F0
0F03C0F0
0F03C0F0
0F83C0F0
0FC3C0F0
07FFC0F0
03FFC0F0
01FFC0F0
00FFC0F0
0003C0F0
0003C0F0
0003C0F0
0003C0F0
0003C0F0
0003C0F0
0003C0F0
0003C0F0
0003C0F0
0003C0F0
0003C0F0
0003C0F0
0003C0F0
0003C0F0
0003C0F0
0003C0F0
0003C0F0
0003C0F0
0003C0F0
0003C0F0
00000000
00000000
00000000
00000000
00000000
00000000
00000000
00000000
00000000
00000000
00000000
00000000
ENDCHAR
STARTCHAR 0x00B7
ENCODING 183
SWIDTH 698 0
DWIDTH 32 0
BBX 32 64 0 -12
BITMAP
00000000
00000000
00000000
00000000
00000000
00000000
00000000
00000000
00000000
00000000
00000000
00000000
00000000
00000000
00000000
00000000
00000000
00000000
00000000
00000000
00000000
00000000
00000000
00000000
00000000
00000000
00000000
00000000
0003C000
0003C000
0003C000
0003C000
0003C000
0003C000
00000000
00000000
00000000
00000000
00000000
00000000
00000000
00000000
00000000
00000000
00000000
00000000
00000000
00000000
00000000
00000000
00000000
00000000
00000000
00000000
00000000
00000000
00000000
00000000
00000000
00000000
00000000
00000000
00000000
00000000
ENDCHAR
STARTCHAR 0x00B8
ENCODING 184
SWIDTH 698 0
DWIDTH 32 0
BBX 32 64 0 -12
BITMAP
00000000
00000000
00000000
00000000
00000000
00000000
00000000
00000000
00000000
00000000
00000000
00000000
00000000
00000000
00000000
00000000
00000000
00000000
00000000
00000000
00000000
00000000
00000000
00000000
00000000
00000000
00000000
00000000
00000000
00000000
00000000
00000000
00000000
00000000
00000000
00000000
00000000
00000000
00000000
00000000
00000000
00000000
00000000
00000000
00000000
00000000
00000000
00000000
00000000
00000000
00000000
00000000
0003C000
0003C000
0003C000
0003C000
0003C000
0003C000
0007C000
000FC000
003F8000
003F0000
003E0000
003C0000
ENDCHAR
STARTCHAR 0x00B9
ENCODING 185
SWIDTH 698 0
DWIDTH 32 0
BBX 32 64 0 -12
BITMAP
00000000
00000000
00000000
00000000
00000000
00000000
00000000
00000000
00000000
00000000
0003C000
0007C000
000FC000
001FC000
003FC000
003FC000
003BC000
0033C000
0003C000
0003C000
0003C000
0003C000
0003C000
0003C000
0003C000
0003C000
0003C000
0003C000
0003C000
0003C000
003FFC00
003FFC00
003FFC00
003FFC00
00000000
00000000
00000000
00000000
00000000
00000000
00000000
00000000
00000000
00000000
00000000
00000000
00000000
00000000
00000000
00000000
00000000
00000000
00000000
00000000
00000000
00000000
00000000
00000000
00000000
00000000
00000000
00000000
00000000
00000000
ENDCHAR
STARTCHAR 0x00BA
ENCODING 186
SWIDTH 698 0
DWIDTH 32 0
BBX 32 64 0 -12
BITMAP
00000000
00000000
00000000
00000000
00000000
00000000
00000000
00000000
00000000
00000000
000FF000
001FF800
003FFC00
007FFE00
00FC3F00
00F81F00
00F00F00
00F00F00
00F00F00
00F00F00
00F00F00
00F00F00
00F81F00
00FC3F00
007FFE00
003FFC00
001FF800
000FF000
00000000
00000000
00000000
00000000
00FFFF00
00FFFF00
00FFFF00
00FFFF00
00000000
00000000
00000000
00000000
00000000
00000000
00000000
00000000
00000000
00000000
00000000
00000000
00000000
00000000
00000000
00000000
00000000
00000000
00000000
00000000
00000000
00000000
00000000
00000000
00000000
00000000
00000000
00000000
ENDCHAR
STARTCHAR 0x00BB
ENCODING 187
SWIDTH 698 0
DWIDTH 32 0
BBX 32 64 0 -12
BITMAP
00000000
00000000
00000000
00000000
00000000
00000000
00000000
00000000
00000000
00000000
00000000
00000000
00000000
00000000
00000000
00000000
00000000
00000000
00000000
00000000
00000000
00000000
00000000
00000000
3F0FC000
1F87E000
0FC3F000
07E1F800
03F0FC00
01F87E00
00FC3F00
007E1F80
003F0FC0
001F87E0
000FC3F0
0007E1F8
0003F0FC
0003F0FC
0003F0FC
0003F0FC
0007E1F8
000FC3F0
001F87E0
003F0FC0
007E1F80
00FC3F00
01F87E00
03F0FC00
07E1F800
0FC3F000
1F87E000
3F0FC000
00000000
00000000
00000000
00000000
00000000
00000000
00000000
00000000
00000000
00000000
00000000
00000000
ENDCHAR
STARTCHAR 0x00BC
ENCODING 188
SWIDTH 698 0
DWIDTH 32 0
BBX 32 64 0 -12
BITMAP
00000000
00000000
00000000
00000000
03C00000
07C00000
0FC00000
1FC00000
3FC00000
3FC00000
3BC00000
33C00000
03C00000
03C00000
03C00000
03C00000
03C00000
03C00000
03C0003C
03C0007C
03C000FC
03C001FC
03C003F8
03C007F0
3FFC0FE0
3FFC1FC0
3FFC3F80
3FFC7F00
0000FE00
0001FC00
0003F800
0007F000
000FE000
001FC000
003F8000
007F0000
00FE0000
01FC0000
03FBC000
07F3C000
0FE3C000
1FC3C000
3F83C3C0
3F03C3C0
3E03C3C0
3C03C3C0
0003C3C0
0003C3C0
0003C3C0
0003C3C0
0003FFFC
0003FFFC
0003FFFC
0003FFFC
000003C0
000003C0
000003C0
000003C0
000003C0
000003C0
00000000
00000000
00000000
00000000
ENDCHAR
STARTCHAR 0x00BD
ENCODING 189
SWIDTH 698 0
DWIDTH 32 0
BBX 32 64 0 -12
BITMAP
00000000
00000000
00000000
00000000
03C00000
07C00000
0FC00000
1FC00000
3FC00000
3FC00000
3BC00000
33C00000
03C00000
03C00000
03C00000
03C00000
03C00000
03C00000
03C0003C
03C0007C
03C000FC
03C001FC
03C003F8
03C007F0
3FFC0FE0
3FFC1FC0
3FFC3F80
3FFC7F00
0000FE00
0001FC00
0003F800
0007F000
000FE000
001FC000
003F8000
007F0000
00FE3FC0
01FC7FE0
03F8FFF0
07F1FFF8
0FE3E07C
1FC3C03C
3F80003C
3F00003C
3E00003C
3C00007C
000000F8
000001F0
000003E0
000007C0
00000F80
00001F00
00003E00
00007C00
0000F83C
0001F03C
0003FFFC
0003FFFC
0003FFFC
0003FFFC
00000000
00000000
00000000
00000000
ENDCHAR
STARTCHAR 0x00BE
ENCODING 190
SWIDTH 698 0
DWIDTH 32 0
BBX 32 64 0 -12
BITMAP
00000000
00000000
00000000
00000000
03FC0000
07FE0000
0FFF0000
1FFF8000
3E07C000
3C03C000
0003C000
0003C000
0003C000
0007C000
00FF8000
00FF0000
00FF0000
00FF8000
0007C03C
0003C07C
0003C0FC
0003C1FC
3C03C3F8
3E07C7F0
1FFF8FE0
0FFF1FC0
07FE3F80
03FC7F00
0000FE00
0001FC00
0003F800
0007F000
000FE000
001FC000
003F8000
007F0000
00FE0000
01FC0000
03FBC000
07F3C000
0FE3C000
1FC3C000
3F83C3C0
3F03C3C0
3E03C3C0
3C03C3C0
0003C3C0
0003C3C0
0003C3C0
0003C3C0
0003FFFC
0003FFFC
0003FFFC
0003FFFC
000003C0
000003C0
000003C0
000003C0
000003C0
000003C0
00000000
00000000
00000000
00000000
ENDCHAR
STARTCHAR 0x00BF
ENCODING 191
SWIDTH 698 0
DWIDTH 32 0
BBX 32 64 0 -12
BITMAP
00000000
00000000
00000000
00000000
00000000
00000000
00000000
00000000
00000000
00000000
00000000
00000000
0003C000
0003C000
0003C000
0003C000
0003C000
0003C000
00000000
00000000
00000000
00000000
00000000
00000000
0003C000
0003C000
0003C000
0003C000
00078000
00078000
000F0000
000F0000
001E0000
001E0000
003C0000
00780000
00F00000
01E00000
03C00000
07800000
0F000000
0F000000
0F000000
0F000000
0F0000F0
0F0000F0
0F8001F0
0FC003F0
07FFFFE0
03FFFFC0
01FFFF80
00FFFF00
00000000
00000000
00000000
00000000
00000000
00000000
00000000
00000000
00000000
00000000
00000000
00000000
ENDCHAR
STARTCHAR 0x00C0
ENCODING 192
SWIDTH 698 0
DWIDTH 32 0
BBX 32 64 0 -12
BITMAP
00000000
00000000
003E0000
003F0000
001F8000
000FC000
0007E000
0003F000
0001F800
0000F800
00000000
00000000
00FFFF00
01FFFF80
03FFFFC0
07FFFFE0
0FC003F0
0F8001F0
0F0000F0
0F0000F0
0F0000F0
0F0000F0
0F0000F0
0F0000F0
0F0000F0
0F0000F0
0F0000F0
0F0000F0
0FFFFFF0
0FFFFFF0
0FFFFFF0
0FFFFFF0
0F0000F0
0F0000F0
0F0000F0
0F0000F0
0F0000F0
0F0000F0
0F0000F0
0F0000F0
0F0000F0
0F0000F0
0F0000F0
0F0000F0
0F0000F0
0F0000F0
0F0000F0
0F0000F0
0F0000F0
0F0000F0
0F0000F0
0F0000F0
00000000
00000000
00000000
00000000
00000000
00000000
00000000
00000000
00000000
00000000
00000000
00000000
ENDCHAR
STARTCHAR 0x00C1
ENCODING 193
SWIDTH 698 0
DWIDTH 32 0
BBX 32 64 0 -12
BITMAP
00000000
00000000
00007C00
0000FC00
0001F800
0003F000
0007E000
000FC000
001F8000
001F0000
00000000
00000000
00FFFF00
01FFFF80
03FFFFC0
07FFFFE0
0FC003F0
0F8001F0
0F0000F0
0F0000F0
0F0000F0
0F0000F0
0F0000F0
0F0000F0
0F0000F0
0F0000F0
0F0000F0
0F0000F0
0FFFFFF0
0FFFFFF0
0FFFFFF0
0FFFFFF0
0F0000F0
0F0000F0
0F0000F0
0F0000F0
0F0000F0
0F0000F0
0F0000F0
0F0000F0
0F0000F0
0F0000F0
0F0000F0
0F0000F0
0F0000F0
0F0000F0
0F0000F0
0F0000F0
0F0000F0
0F0000F0
0F0000F0
0F0000F0
00000000
00000000
00000000
00000000
00000000
00000000
00000000
00000000
00000000
00000000
00000000
00000000
ENDCHAR
STARTCHAR 0x00C2
ENCODING 194
SWIDTH 698 0
DWIDTH 32 0
BBX 32 64 0 -12
BITMAP
0003C000
0007E000
000FF000
001FF800
003FFC00
007E7E00
00FC3F00
00F81F00
00000000
00000000
00000000
00000000
00FFFF00
01FFFF80
03FFFFC0
07FFFFE0
0FC003F0
0F8001F0
0F0000F0
0F0000F0
0F0000F0
0F0000F0
0F0000F0
0F0000F0
0F0000F0
0F0000F0
0F0000F0
0F0000F0
0FFFFFF0
0FFFFFF0
0FFFFFF0
0FFFFFF0
0F0000F0
0F0000F0
0F0000F0
0F0000F0
0F0000F0
0F0000F0
0F0000F0
0F0000F0
0F0000F0
0F0000F0
0F0000F0
0F0000F0
0F0000F0
0F0000F0
0F0000F0
0F0000F0
0F0000F0
0F0000F0
0F0000F0
0F0000F0
00000000
00000000
00000000
00000000
00000000
00000000
00000000
00000000
00000000
00000000
00000000
00000000
ENDCHAR
STARTCHAR 0x00C3
ENCODING 195
SWIDTH 698 0
DWIDTH 32 0
BBX 32 64 0 -12
BITMAP
00000000
00000000
00FF00F0
01FF80F0
03FFC1F0
07FFE3F0
0FC7FFE0
0F83FFC0
0F01FF80
0F00FF00
00000000
00000000
00FFFF00
01FFFF80
03FFFFC0
07FFFFE0
0FC003F0
0F8001F0
0F0000F0
0F0000F0
0F0000F0
0F0000F0
0F0000F0
0F0000F0
0F0000F0
0F0000F0
0F0000F0
0F0000F0
0FFFFFF0
0FFFFFF0
0FFFFFF0
0FFFFFF0
0F0000F0
0F0000F0
0F0000F0
0F0000F0
0F0000F0
0F0000F0
0F0000F0
0F0000F0
0F0000F0
0F0000F0
0F0000F0
0F0000F0
0F0000F0
0F0000F0
0F0000F0
0F0000F0
0F0000F0
0F0000F0
0F0000F0
0F0000F0
00000000
00000000
00000000
00000000
00000000
00000000
00000000
00000000
00000000
00000000
00000000
00000000
ENDCHAR
STARTCHAR 0x00C4
ENCODING 196
SWIDTH 698 0
DWIDTH 32 0
BBX 32 64 0 -12
BITMAP
00000000
00000000
00F00F00
00F00F00
00F00F00
00F00F00
00F00F00
00F00F00
00000000
00000000
00000000
00000000
00FFFF00
01FFFF80
03FFFFC0
07FFFFE0
0FC003F0
0F8001F0
0F0000F0
0F0000F0
0F0000F0
0F0000F0
0F0000F0
0F0000F0
0F0000F0
0F0000F0
0F0000F0
0F0000F0
0FFFFFF0
0FFFFFF0
0FFFFFF0
0FFFFFF0
0F0000F0
0F0000F0
0F0000F0
0F0000F0
0F0000F0
0F0000F0
0F0000F0
0F0000F0
0F0000F0
0F0000F0
0F0000F0
0F0000F0
0F0000F0
0F0000F0
0F0000F0
0F0000F0
0F0000F0
0F0000F0
0F0000F0
0F0000F0
00000000
00000000
00000000
00000000
00000000
00000000
00000000
00000000
00000000
00000000
00000000
00000000
ENDCHAR
STARTCHAR 0x00C5
ENCODING 197
SWIDTH 698 0
DWIDTH 32 0
BBX 32 64 0 -12
BITMAP
00000000
00000000
0003C000
0007E000
000FF000
001FF800
003C3C00
003C3C00
003C3C00
003C3C00
001FF800
000FF000
00FFFF00
01FFFF80
03FFFFC0
07FFFFE0
0FC003F0
0F8001F0
0F0000F0
0F0000F0
0F0000F0
0F0000F0
0F0000F0
0F0000F0
0F0000F0
0F0000F0
0F0000F0
0F0000F0
0FFFFFF0
0FFFFFF0
0FFFFFF0
0FFFFFF0
0F0000F0
0F0000F0
0F0000F0
0F0000F0
0F0000F0
0F0000F0
0F0000F0
0F0000F0
0F0000F0
0F0000F0
0F0000F0
0F0000F0
0F0000F0
0F0000F0
0F0000F0
0F0000F0
0F0000F0
0F0000F0
0F0000F0
0F0000F0
00000000
00000000
00000000
00000000
00000000
00000000
00000000
00000000
00000000
00000000
00000000
00000000
ENDCHAR
STARTCHAR 0x00C6
ENCODING 198
SWIDTH 698 0
DWIDTH 32 0
BBX 32 64 0 -12
BITMAP
00000000
00000000
00000000
00000000
00000000
00000000
00000000
00000000
00000000
00000000
00000000
00000000
00FFFFF0
01FFFFF0
03FFFFF0
07FFFFF0
0FC0F000
0F80F000
0F00F000
0F00F000
0F00F000
0F00F000
0F00F000
0F00F000
0F00F000
0F00F000
0F00F000
0F00F000
0FFFFFF0
0FFFFFF0
0FFFFFF0
0FFFFFF0
0F00F000
0F00F000
0F00F000
0F00F000
0F00F000
0F00F000
0F00F000
0F00F000
0F00F000
0F00F000
0F00F000
0F00F000
0F00F000
0F00F000
0F00F000
0F00F000
0F00FFF0
0F00FFF0
0F00FFF0
0F00FFF0
00000000
00000000
00000000
00000000
00000000
00000000
00000000
00000000
00000000
00000000
00000000
00000000
ENDCHAR
STARTCHAR 0x00C7
ENCODING 199
SWIDTH 698 0
DWIDTH 32 0
BBX 32 64 0 -12
BITMAP
00000000
00000000
00000000
00000000
00000000
00000000
00000000
00000000
00000000
00000000
00000000
00000000
00FFFFF0
01FFFFF0
03FFFFF0
07FFFFF0
0FC000F0
0F8000F0
0F0000F0
0F0000F0
0F000000
0F000000
0F000000
0F000000
0F000000
0F000000
0F000000
0F000000
0F000000
0F000000
0F000000
0F000000
0F000000
0F000000
0F000000
0F000000
0F000000
0F000000
0F000000
0F000000
0F000000
0F000000
0F000000
0F000000
0F000000
0F000000
0F800000
0FC00000
07FFFFF0
03FFFFF0
01FFFFF0
00FFFFF0
0000F000
0000F000
0000F000
0000F000
0000F000
0000F000
0001F000
0003F000
000FE000
000FC000
000F8000
000F0000
ENDCHAR
STARTCHAR 0x00C8
ENCODING 200
SWIDTH 698 0
DWIDTH 32 0
BBX 32 64 0 -12
BITMAP
00000000
00000000
003E0000
003F0000
001F8000
000FC000
0007E000
0003F000
0001F800
0000F800
00000000
00000000
00FFFFF0
01FFFFF0
03FFFFF0
07FFFFF0
0FC00000
0F800000
0F000000
0F000000
0F000000
0F000000
0F000000
0F000000
0F000000
0F000000
0F000000
0F000000
0FFFFC00
0FFFFC00
0FFFFC00
0FFFFC00
0F000000
0F000000
0F000000
0F000000
0F000000
0F000000
0F000000
0F000000
0F000000
0F000000
0F000000
0F000000
0F000000
0F000000
0F800000
0FC00000
07FFFFF0
03FFFFF0
01FFFFF0
00FFFFF0
00000000
00000000
00000000
00000000
00000000
00000000
00000000
00000000
00000000
00000000
00000000
00000000
ENDCHAR
STARTCHAR 0x00C9
ENCODING 201
SWIDTH 698 0
DWIDTH 32 0
BBX 32 64 0 -12
BITMAP
00000000
00000000
00007C00
0000FC00
0001F800
0003F000
0007E000
000FC000
001F8000
001F0000
00000000
00000000
00FFFFF0
01FFFFF0
03FFFFF0
07FFFFF0
0FC00000
0F800000
0F000000
0F000000
0F000000
0F000000
0F000000
0F000000
0F000000
0F000000
0F000000
0F000000
0FFFFC00
0FFFFC00
0FFFFC00
0FFFFC00
0F000000
0F000000
0F000000
0F000000
0F000000
0F000000
0F000000
0F000000
0F000000
0F000000
0F000000
0F000000
0F000000
0F000000
0F800000
0FC00000
07FFFFF0
03FFFFF0
01FFFFF0
00FFFFF0
00000000
00000000
00000000
00000000
00000000
00000000
00000000
00000000
00000000
00000000
00000000
00000000
ENDCHAR
STARTCHAR 0x00CA
ENCODING 202
SWIDTH 698 0
DWIDTH 32 0
BBX 32 64 0 -12
BITMAP
0003C000
0007E000
000FF000
001FF800
003FFC00
007E7E00
00FC3F00
00F81F00
00000000
00000000
00000000
00000000
00FFFFF0
01FFFFF0
03FFFFF0
07FFFFF0
0FC00000
0F800000
0F000000
0F000000
0F000000
0F000000
0F000000
0F000000
0F000000
0F000000
0F000000
0F000000
0FFFFC00
0FFFFC00
0FFFFC00
0FFFFC00
0F000000
0F000000
0F000000
0F000000
0F000000
0F000000
0F000000
0F000000
0F000000
0F000000
0F000000
0F000000
0F000000
0F000000
0F800000
0FC00000
07FFFFF0
03FFFFF0
01FFFFF0
00FFFFF0
00000000
00000000
00000000
00000000
00000000
00000000
00000000
00000000
00000000
00000000
00000000
00000000
ENDCHAR
STARTCHAR 0x00CB
ENCODING 203
SWIDTH 698 0
DWIDTH 32 0
BBX 32 64 0 -12
BITMAP
00000000
00000000
00F00F00
00F00F00
00F00F00
00F00F00
00F00F00
00F00F00
00000000
00000000
00000000
00000000
00FFFFF0
01FFFFF0
03FFFFF0
07FFFFF0
0FC00000
0F800000
0F000000
0F000000
0F000000
0F000000
0F000000
0F000000
0F000000
0F000000
0F000000
0F000000
0FFFFC00
0FFFFC00
0FFFFC00
0FFFFC00
0F000000
0F000000
0F000000
0F000000
0F000000
0F000000
0F000000
0F000000
0F000000
0F000000
0F000000
0F000000
0F000000
0F000000
0F800000
0FC00000
07FFFFF0
03FFFFF0
01FFFFF0
00FFFFF0
00000000
00000000
00000000
00000000
00000000
00000000
00000000
00000000
00000000
00000000
00000000
00000000
ENDCHAR
STARTCHAR 0x00CC
ENCODING 204
SWIDTH 698 0
DWIDTH 32 0
BBX 32 64 0 -12
BITMAP
00000000
00000000
003E0000
003F0000
001F8000
000FC000
0007E000
0003F000
0001F800
0000F800
00000000
00000000
03FFFFC0
03FFFFC0
03FFFFC0
03FFFFC0
0003C000
0003C000
0003C000
0003C000
0003C000
0003C000
0003C000
0003C000
0003C000
0003C000
0003C000
0003C000
0003C000
0003C000
0003C000
0003C000
0003C000
0003C000
0003C000
0003C000
0003C000
0003C000
0003C000
0003C000
0003C000
0003C000
0003C000
0003C000
0003C000
0003C000
0003C000
0003C000
03FFFFC0
03FFFFC0
03FFFFC0
03FFFFC0
00000000
00000000
00000000
00000000
00000000
00000000
00000000
00000000
00000000
00000000
00000000
00000000
ENDCHAR
STARTCHAR 0x00CD
ENCODING 205
SWIDTH 698 0
DWIDTH 32 0
BBX 32 64 0 -12
BITMAP
00000000
00000000
00007C00
0000FC00
0001F800
0003F000
0007E000
000FC000
001F8000
001F0000
00000000
00000000
03FFFFC0
03FFFFC0
03FFFFC0
03FFFFC0
0003C000
0003C000
0003C000
0003C000
0003C000
0003C000
0003C000
0003C000
0003C000
0003C000
0003C000
0003C000
0003C000
0003C000
0003C000
0003C000
0003C000
0003C000
0003C000
0003C000
0003C000
0003C000
0003C000
0003C000
0003C000
0003C000
0003C000
0003C000
0003C000
0003C000
0003C000
0003C000
03FFFFC0
03FFFFC0
03FFFFC0
03FFFFC0
00000000
00000000
00000000
00000000
00000000
00000000
00000000
00000000
00000000
00000000
00000000
00000000
ENDCHAR
STARTCHAR 0x00CE
ENCODING 206
SWIDTH 698 0
DWIDTH 32 0
BBX 32 64 0 -12
BITMAP
0003C000
0007E000
000FF000
001FF800
003FFC00
007E7E00
00FC3F00
00F81F00
00000000
00000000
00000000
00000000
03FFFFC0
03FFFFC0
03FFFFC0
03FFFFC0
0003C000
0003C000
0003C000
0003C000
0003C000
0003C000
0003C000
0003C000
0003C000
0003C000
0003C000
0003C000
0003C000
0003C000
0003C000
0003C000
0003C000
0003C000
0003C000
0003C000
0003C000
0003C000
0003C000
0003C000
0003C000
0003C000
0003C000
0003C000
0003C000
0003C000
0003C000
0003C000
03FFFFC0
03FFFFC0
03FFFFC0
03FFFFC0
00000000
00000000
00000000
00000000
00000000
00000000
00000000
00000000
00000000
00000000
00000000
00000000
ENDCHAR
STARTCHAR 0x00CF
ENCODING 207
SWIDTH 698 0
DWIDTH 32 0
BBX 32 64 0 -12
BITMAP
00000000
00000000
00F00F00
00F00F00
00F00F00
00F00F00
00F00F00
00F00F00
00000000
00000000
00000000
00000000
03FFFFC0
03FFFFC0
03FFFFC0
03FFFFC0
0003C000
0003C000
0003C000
0003C000
0003C000
0003C000
0003C000
0003C000
0003C000
0003C000
0003C000
0003C000
0003C000
0003C000
0003C000
0003C000
0003C000
0003C000
0003C000
0003C000
0003C000
0003C000
0003C000
0003C000
0003C000
0003C000
0003C000
0003C000
0003C000
0003C000
0003C000
0003C000
03FFFFC0
03FFFFC0
03FFFFC0
03FFFFC0
00000000
00000000
00000000
00000000
00000000
00000000
00000000
00000000
00000000
00000000
00000000
00000000
ENDCHAR
STARTCHAR 0x00D0
ENCODING 208
SWIDTH 698 0
DWIDTH 32 0
BBX 32 64 0 -12
BITMAP
00000000
00000000
00000000
00000000
00000000
00000000
00000000
00000000
00000000
00000000
00000000
00000000
0FFFFF00
0FFFFF80
0FFFFFC0
0FFFFFE0
0F0003F0
0F0001F0
0F0000F0
0F0000F0
0F0000F0
0F0000F0
0F0000F0
0F0000F0
0F0000F0
0F0000F0
0F0000F0
0F0000F0
0F0000F0
0F0000F0
FFFF00F0
FFFF00F0
FFFF00F0
FFFF00F0
0F0000F0
0F0000F0
0F0000F0
0F0000F0
0F0000F0
0F0000F0
0F0000F0
0F0000F0
0F0000F0
0F0000F0
0F0000F0
0F0000F0
0F0001F0
0F0003F0
0FFFFFE0
0FFFFFC0
0FFFFF80
0FFFFF00
00000000
00000000
00000000
00000000
00000000
00000000
00000000
00000000
00000000
00000000
00000000
00000000
ENDCHAR
STARTCHAR 0x00D1
ENCODING 209
SWIDTH 698 0
DWIDTH 32 0
BBX 32 64 0 -12
BITMAP
00000000
00000000
00FF00F0
01FF80F0
03FFC1F0
07FFE3F0
0FC7FFE0
0F83FFC0
0F01FF80
0F00FF00
00000000
00000000
0F0000F0
0F0000F0
0F8000F0
0F8000F0
0FC000F0
0FC000F0
0FE000F0
0FE000F0
0FF000F0
0FF000F0
0FF800F0
0FF800F0
0F7C00F0
0F7C00F0
0F3E00F0
0F3E00F0
0F1F00F0
0F1F00F0
0F0F80F0
0F0F80F0
0F07C0F0
0F07C0F0
0F03E0F0
0F03E0F0
0F01F0F0
0F01F0F0
0F00F8F0
0F00F8F0
0F007CF0
0F007CF0
0F003EF0
0F003EF0
0F001FF0
0F001FF0
0F000FF0
0F000FF0
0F0007F0
0F0007F0
0F0003F0
0F0003F0
00000000
00000000
00000000
00000000
00000000
00000000
00000000
00000000
00000000
00000000
00000000
00000000
ENDCHAR
STARTCHAR 0x00D2
ENCODING 210
SWIDTH 698 0
DWIDTH 32 0
BBX 32 64 0 -12
BITMAP
00000000
00000000
003E0000
003F0000
001F8000
000FC000
0007E000
0003F000
0001F800
0000F800
00000000
00000000
00FFFF00
01FFFF80
03FFFFC0
07FFFFE0
0FC003F0
0F8001F0
0F0000F0
0F0000F0
0F0000F0
0F0000F0
0F0000F0
0F0000F0
0F0000F0
0F0000F0
0F0000F0
0F0000F0
0F0000F0
0F0000F0
0F0000F0
0F0000F0
0F0000F0
0F0000F0
0F0000F0
0F0000F0
0F0000F0
0F0000F0
0F0000F0
0F0000F0
0F0000F0
0F0000F0
0F0000F0
0F0000F0
0F0000F0
0F0000F0
0F8001F0
0FC003F0
07FFFFE0
03FFFFC0
01FFFF80
00FFFF00
00000000
00000000
00000000
00000000
00000000
00000000
00000000
00000000
00000000
00000000
00000000
00000000
ENDCHAR
STARTCHAR 0x00D3
ENCODING 211
SWIDTH 698 0
DWIDTH 32 0
BBX 32 64 0 -12
BITMAP
00000000
00000000
00007C00
0000FC00
0001F800
0003F000
0007E000
000FC000
001F8000
001F0000
00000000
00000000
00FFFF00
01FFFF80
03FFFFC0
07FFFFE0
0FC003F0
0F8001F0
0F0000F0
0F0000F0
0F0000F0
0F0000F0
0F0000F0
0F0000F0
0F0000F0
0F0000F0
0F0000F0
0F0000F0
0F0000F0
0F0000F0
0F0000F0
0F0000F0
0F0000F0
0F0000F0
0F0000F0
0F0000F0
0F0000F0
0F0000F0
0F0000F0
0F0000F0
0F0000F0
0F0000F0
0F0000F0
0F0000F0
0F0000F0
0F0000F0
0F8001F0
0FC003F0
07FFFFE0
03FFFFC0
01FFFF80
00FFFF00
00000000
00000000
00000000
00000000
00000000
00000000
00000000
00000000
00000000
00000000
00000000
00000000
ENDCHAR
STARTCHAR 0x00D4
ENCODING 212
SWIDTH 698 0
DWIDTH 32 0
BBX 32 64 0 -12
BITMAP
0003C000
0007E000
000FF000
001FF800
003FFC00
007E7E00
00FC3F00
00F81F00
00000000
00000000
00000000
00000000
00FFFF00
01FFFF80
03FFFFC0
07FFFFE0
0FC003F0
0F8001F0
0F0000F0
0F0000F0
0F0000F0
0F0000F0
0F0000F0
0F0000F0
0F0000F0
0F0000F0
0F0000F0
0F0000F0
0F0000F0
0F0000F0
0F0000F0
0F0000F0
0F0000F0
0F0000F0
0F0000F0
0F0000F0
0F0000F0
0F0000F0
0F0000F0
0F0000F0
0F0000F0
0F0000F0
0F0000F0
0F0000F0
0F0000F0
0F0000F0
0F8001F0
0FC003F0
07FFFFE0
03FFFFC0
01FFFF80
00FFFF00
00000000
00000000
00000000
00000000
00000000
00000000
00000000
00000000
00000000
00000000
00000000
00000000
ENDCHAR
STARTCHAR 0x00D5
ENCODING 213
SWIDTH 698 0
DWIDTH 32 0
BBX 32 64 0 -12
BITMAP
00000000
00000000
00FF00F0
01FF80F0
03FFC1F0
07FFE3F0
0FC7FFE0
0F83FFC0
0F01FF80
0F00FF00
00000000
00000000
00FFFF00
01FFFF80
03FFFFC0
07FFFFE0
0FC003F0
0F8001F0
0F0000F0
0F0000F0
0F0000F0
0F0000F0
0F0000F0
0F0000F0
0F0000F0
0F0000F0
0F0000F0
0F0000F0
0F0000F0
0F0000F0
0F0000F0
0F0000F0
0F0000F0
0F0000F0
0F0000F0
0F0000F0
0F0000F0
0F0000F0
0F0000F0
0F0000F0
0F0000F0
0F0000F0
0F0000F0
0F0000F0
0F0000F0
0F0000F0
0F8001F0
0FC003F0
07FFFFE0
03FFFFC0
01FFFF80
00FFFF00
00000000
00000000
00000000
00000000
00000000
00000000
00000000
00000000
00000000
00000000
00000000
00000000
ENDCHAR
STARTCHAR 0x00D6
ENCODING 214
SWIDTH 698 0
DWIDTH 32 0
BBX 32 64 0 -12
BITMAP
00000000
00000000
00F00F00
00F00F00
00F00F00
00F00F00
00F00F00
00F00F00
00000000
00000000
00000000
00000000
00FFFF00
01FFFF80
03FFFFC0
07FFFFE0
0FC003F0
0F8001F0
0F0000F0
0F0000F0
0F0000F0
0F0000F0
0F0000F0
0F0000F0
0F0000F0
0F0000F0
0F0000F0
0F0000F0
0F0000F0
0F0000F0
0F0000F0
0F0000F0
0F0000F0
0F0000F0
0F0000F0
0F0000F0
0F0000F0
0F0000F0
0F0000F0
0F0000F0
0F0000F0
0F0000F0
0F0000F0
0F0000F0
0F0000F0
0F0000F0
0F8001F0
0FC003F0
07FFFFE0
03FFFFC0
01FFFF80
00FFFF00
00000000
00000000
00000000
00000000
00000000
00000000
00000000
00000000
00000000
00000000
00000000
00000000
ENDCHAR
STARTCHAR 0x00D7
ENCODING 215
SWIDTH 698 0
DWIDTH 32 0
BBX 32 64 0 -12
BITMAP
00000000
00000000
00000000
00000000
00000000
00000000
00000000
00000000
00000000
00000000
00000000
00000000
00000000
00000000
00000000
00000000
00000000
00000000
00000000
00000000
0E000070
0F0000F0
0F8001F0
0FC003F0
07E007E0
03F00FC0
01F81F80
00FC3F00
007E7E00
003FFC00
001FF800
000FF000
000FF000
001FF800
003FFC00
007E7E00
00FC3F00
01F81F80
03F00FC0
07E007E0
0FC003F0
0F8001F0
0F0000F0
0E000070
00000000
00000000
00000000
00000000
00000000
00000000
00000000
00000000
00000000
00000000
00000000
00000000
00000000
00000000
00000000
00000000
00000000
00000000
00000000
00000000
ENDCHAR
STARTCHAR 0x00D8
ENCODING 216
SWIDTH 698 0
DWIDTH 32 0
BBX 32 64 0 -12
BITMAP
00000000
00000000
00000000
00000000
00000000
00000000
00000000
00000000
000000F0
000000F0
000001F0
000001F0
00FFFFE0
01FFFFE0
03FFFFC0
07FFFFE0
0FC00FF0
0F800FF0
0F001FF0
0F001FF0
0F003EF0
0F003EF0
0F007CF0
0F007CF0
0F00F8F0
0F00F8F0
0F01F0F0
0F01F0F0
0F03E0F0
0F03E0F0
0F07C0F0
0F07C0F0
0F0F80F0
0F0F80F0
0F1F00F0
0F1F00F0
0F3E00F0
0F3E00F0
0F7C00F0
0F7C00F0
0FF800F0
0FF800F0
0FF000F0
0FF000F0
0FE000F0
0FE000F0
0FC001F0
0FC003F0
0FFFFFE0
0FFFFFC0
0FFFFF80
0FFFFF00
1E000000
1E000000
3C000000
3C000000
00000000
00000000
00000000
00000000
00000000
00000000
00000000
00000000
ENDCHAR
STARTCHAR 0x00D9
ENCODING 217
SWIDTH 698 0
DWIDTH 32 0
BBX 32 64 0 -12
BITMAP
00000000
00000000
003E0000
003F0000
001F8000
000FC000
0007E000
0003F000
0001F800
0000F800
00000000
00000000
0F0000F0
0F0000F0
0F0000F0
0F0000F0
0F0000F0
0F0000F0
0F0000F0
0F0000F0
0F0000F0
0F0000F0
0F0000F0
0F0000F0
0F0000F0
0F0000F0
0F0000F0
0F0000F0
0F0000F0
0F0000F0
0F0000F0
0F0000F0
0F0000F0
0F0000F0
0F0000F0
0F0000F0
0F0000F0
0F0000F0
0F0000F0
0F0000F0
0F0000F0
0F0000F0
0F0000F0
0F0000F0
0F0000F0
0F0000F0
0F8000F0
0FC000F0
07FFFFF0
03FFFFF0
01FFFFF0
00FFFFF0
00000000
00000000
00000000
00000000
00000000
00000000
00000000
00000000
00000000
00000000
00000000
00000000
ENDCHAR
STARTCHAR 0x00DA
ENCODING 218
SWIDTH 698 0
DWIDTH 32 0
BBX 32 64 0 -12
BITMAP
00000000
00000000
00007C00
0000FC00
0001F800
0003F000
0007E000
000FC000
001F8000
001F0000
00000000
00000000
0F0000F0
0F0000F0
0F0000F0
0F0000F0
0F0000F0
0F0000F0
0F0000F0
0F0000F0
0F0000F0
0F0000F0
0F0000F0
0F0000F0
0F0000F0
0F0000F0
0F0000F0
0F0000F0
0F0000F0
0F0000F0
0F0000F0
0F0000F0
0F0000F0
0F0000F0
0F0000F0
0F0000F0
0F0000F0
0F0000F0
0F0000F0
0F0000F0
0F0000F0
0F0000F0
0F0000F0
0F0000F0
0F0000F0
0F0000F0
0F8000F0
0FC000F0
07FFFFF0
03FFFFF0
01FFFFF0
00FFFFF0
00000000
00000000
00000000
00000000
00000000
00000000
00000000
00000000
00000000
00000000
00000000
00000000
ENDCHAR
STARTCHAR 0x00DB
ENCODING 219
SWIDTH 698 0
DWIDTH 32 0
BBX 32 64 0 -12
BITMAP
0003C000
0007E000
000FF000
001FF800
003FFC00
007E7E00
00FC3F00
00F81F00
00000000
00000000
00000000
00000000
0F0000F0
0F0000F0
0F0000F0
0F0000F0
0F0000F0
0F0000F0
0F0000F0
0F0000F0
0F0000F0
0F0000F0
0F0000F0
0F0000F0
0F0000F0
0F0000F0
0F0000F0
0F0000F0
0F0000F0
0F0000F0
0F0000F0
0F0000F0
0F0000F0
0F0000F0
0F0000F0
0F0000F0
0F0000F0
0F0000F0
0F0000F0
0F0000F0
0F0000F0
0F0000F0
0F0000F0
0F0000F0
0F0000F0
0F0000F0
0F8000F0
0FC000F0
07FFFFF0
03FFFFF0
01FFFFF0
00FFFFF0
00000000
00000000
00000000
00000000
00000000
00000000
00000000
00000000
00000000
00000000
00000000
00000000
ENDCHAR
STARTCHAR 0x00DC
ENCODING 220
SWIDTH 698 0
DWIDTH 32 0
BBX 32 64 0 -12
BITMAP
00000000
00000000
00F00F00
00F00F00
00F00F00
00F00F00
00F00F00
00F00F00
00000000
00000000
00000000
00000000
0F0000F0
0F0000F0
0F0000F0
0F0000F0
0F0000F0
0F0000F0
0F0000F0
0F0000F0
0F0000F0
0F0000F0
0F0000F0
0F0000F0
0F0000F0
0F0000F0
0F0000F0
0F0000F0
0F0000F0
0F0000F0
0F0000F0
0F0000F0
0F0000F0
0F0000F0
0F0000F0
0F0000F0
0F0000F0
0F0000F0
0F0000F0
0F0000F0
0F0000F0
0F0000F0
0F0000F0
0F0000F0
0F0000F0
0F0000F0
0F8000F0
0FC000F0
07FFFFF0
03FFFFF0
01FFFFF0
00FFFFF0
00000000
00000000
00000000
00000000
00000000
00000000
00000000
00000000
00000000
00000000
00000000
00000000
ENDCHAR
STARTCHAR 0x00DD
ENCODING 221
SWIDTH 698 0
DWIDTH 32 0
BBX 32 64 0 -12
BITMAP
00000000
00000000
00007C00
0000FC00
0001F800
0003F000
0007E000
000FC000
001F8000
001F0000
00000000
00000000
0F0000F0
0F0000F0
0F0000F0
0F0000F0
0F0000F0
0F0000F0
0F0000F0
0F0000F0
0F0000F0
0F0000F0
0F0000F0
0F0000F0
0F0000F0
0F0000F0
0F8000F0
0FC000F0
07FFFFF0
03FFFFF0
01FFFFF0
00FFFFF0
000000F0
000000F0
000000F0
000000F0
000000F0
000000F0
000000F0
000000F0
000000F0
000000F0
000000F0
000000F0
000000F0
000000F0
000001F0
000003F0
0FFFFFE0
0FFFFFC0
0FFFFF80
0FFFFF00
00000000
00000000
00000000
00000000
00000000
00000000
00000000
00000000
00000000
00000000
00000000
00000000
ENDCHAR
STARTCHAR 0x00DE
ENCODING 222
SWIDTH 698 0
DWIDTH 32 0
BBX 32 64 0 -12
BITMAP
00000000
00000000
00000000
00000000
00000000
00000000
00000000
00000000
00000000
00000000
00000000
00000000
00000000
00000000
00000000
00000000
0F000000
0F000000
0F000000
0F000000
0F000000
0F000000
0F000000
0F000000
0FFFFF00
0FFFFF80
0FFFFFC0
0FFFFFE0
0F0003F0
0F0001F0
0F0000F0
0F0000F0
0F0000F0
0F0000F0
0F0000F0
0F0000F0
0F0000F0
0F0000F0
0F0000F0
0F0000F0
0F0000F0
0F0000F0
0F0000F0
0F0000F0
0F0000F0
0F0000F0
0F0001F0
0F0003F0
0FFFFFE0
0FFFFFC0
0FFFFF80
0FFFFF00
0F000000
0F000000
0F000000
0F000000
0F000000
0F000000
0F000000
0F000000
00000000
00000000
00000000
00000000
ENDCHAR
STARTCHAR 0x00DF
ENCODING 223
SWIDTH 698 0
DWIDTH 32 0
BBX 32 64 0 -12
BITMAP
00000000
00000000
00000000
00000000
00000000
00000000
00000000
00000000
00000000
00000000
00000000
00000000
00FFF000
00FFF000
03FFFC00
03FFFC00
0FC03F00
0FC03F00
0F000F00
0F000F00
0F000F00
0F000F00
0F000F00
0F000F00
0F000F00
0F000F00
0F003F00
0F003F00
0FFFFC00
0FFFFC00
0FFFF000
0FFFF000
0F03FF00
0F03FF00
0F003FC0
0F003FC0
0F0003F0
0F0003F0
0F0000F0
0F0000F0
0F0000F0
0F0000F0
0F0000F0
0F0000F0
0FF000F0
0FF000F0
0FFC03F0
0FFC03F0
0F3FFFC0
0F3FFFC0
0F0FFF00
0F0FFF00
00000000
00000000
00000000
00000000
00000000
00000000
00000000
00000000
00000000
00000000
00000000
00000000
ENDCHAR
STARTCHAR 0x00E0
ENCODING 224
SWIDTH 698 0
DWIDTH 32 0
BBX 32 64 0 -12
BITMAP
00000000
00000000
00000000
00000000
00000000
00000000
00000000
00000000
00380000
003C0000
003E0000
003F0000
001F8000
000FC000
0007E000
0003F000
0001F800
0000FC00
00007C00
00003C00
00000000
00000000
00000000
00000000
03FFFF00
03FFFF80
03FFFFC0
03FFFFE0
000003F0
000001F0
000000F0
000000F0
000000F0
000000F0
00FFFFF0
01FFFFF0
03FFFFF0
07FFFFF0
0FC000F0
0F8000F0
0F0000F0
0F0000F0
0F0000F0
0F0000F0
0F0000F0
0F0000F0
0F8000F0
0FC000F0
07FFFFF0
03FFFFF0
01FFFFF0
00FFFFF0
00000000
00000000
00000000
00000000
00000000
00000000
00000000
00000000
00000000
00000000
00000000
00000000
ENDCHAR
STARTCHAR 0x00E1
ENCODING 225
SWIDTH 698 0
DWIDTH 32 0
BBX 32 64 0 -12
BITMAP
00000000
00000000
00000000
00000000
00000000
00000000
00000000
00000000
00000700
00000F00
00001F00
00003F00
00007E00
0000FC00
0001F800
0003F000
0007E000
000FC000
000F8000
000F0000
00000000
00000000
00000000
00000000
03FFFF00
03FFFF80
03FFFFC0
03FFFFE0
000003F0
000001F0
000000F0
000000F0
000000F0
000000F0
00FFFFF0
01FFFFF0
03FFFFF0
07FFFFF0
0FC000F0
0F8000F0
0F0000F0
0F0000F0
0F0000F0
0F0000F0
0F0000F0
0F0000F0
0F8000F0
0FC000F0
07FFFFF0
03FFFFF0
01FFFFF0
00FFFFF0
00000000
00000000
00000000
00000000
00000000
00000000
00000000
00000000
00000000
00000000
00000000
00000000
ENDCHAR
STARTCHAR 0x00E2
ENCODING 226
SWIDTH 698 0
DWIDTH 32 0
BBX 32 64 0 -12
BITMAP
00000000
00000000
00000000
00000000
00000000
00000000
00000000
00000000
0003C000
0007E000
000FF000
001FF800
003FFC00
007E7E00
00FC3F00
01F81F80
03F00FC0
03E007C0
03C003C0
038001C0
00000000
00000000
00000000
00000000
03FFFF00
03FFFF80
03FFFFC0
03FFFFE0
000003F0
000001F0
000000F0
000000F0
000000F0
000000F0
00FFFFF0
01FFFFF0
03FFFFF0
07FFFFF0
0FC000F0
0F8000F0
0F0000F0
0F0000F0
0F0000F0
0F0000F0
0F0000F0
0F0000F0
0F8000F0
0FC000F0
07FFFFF0
03FFFFF0
01FFFFF0
00FFFFF0
00000000
00000000
00000000
00000000
00000000
00000000
00000000
00000000
00000000
00000000
00000000
00000000
ENDCHAR
STARTCHAR 0x00E3
ENCODING 227
SWIDTH 698 0
DWIDTH 32 0
BBX 32 64 0 -12
BITMAP
00000000
00000000
00000000
00000000
00000000
00000000
00000000
00000000
00FC00F0
01FE00F0
03FF00F0
07FF80F0
0FCFC1F0
0F87E3F0
0F03FFE0
0F01FFC0
0F00FF80
0F007F00
00000000
00000000
00000000
00000000
00000000
00000000
03FFFF00
03FFFF80
03FFFFC0
03FFFFE0
000003F0
000001F0
000000F0
000000F0
000000F0
000000F0
00FFFFF0
01FFFFF0
03FFFFF0
07FFFFF0
0FC000F0
0F8000F0
0F0000F0
0F0000F0
0F0000F0
0F0000F0
0F0000F0
0F0000F0
0F8000F0
0FC000F0
07FFFFF0
03FFFFF0
01FFFFF0
00FFFFF0
00000000
00000000
00000000
00000000
00000000
00000000
00000000
00000000
00000000
00000000
00000000
00000000
ENDCHAR
STARTCHAR 0x00E4
ENCODING 228
SWIDTH 698 0
DWIDTH 32 0
BBX 32 64 0 -12
BITMAP
00000000
00000000
00000000
00000000
00000000
00000000
00000000
00000000
00000000
00000000
00000000
00000000
00F00F00
00F00F00
00F00F00
00F00F00
00F00F00
00F00F00
00000000
00000000
00000000
00000000
00000000
00000000
03FFFF00
03FFFF80
03FFFFC0
03FFFFE0
000003F0
000001F0
000000F0
000000F0
000000F0
000000F0
00FFFFF0
01FFFFF0
03FFFFF0
07FFFFF0
0FC000F0
0F8000F0
0F0000F0
0F0000F0
0F0000F0
0F0000F0
0F0000F0
0F0000F0
0F8000F0
0FC000F0
07FFFFF0
03FFFFF0
01FFFFF0
00FFFFF0
00000000
00000000
00000000
00000000
00000000
00000000
00000000
00000000
00000000
00000000
00000000
00000000
ENDCHAR
STARTCHAR 0x00E5
ENCODING 229
SWIDTH 698 0
DWIDTH 32 0
BBX 32 64 0 -12
BITMAP
00000000
00000000
00000000
00000000
00000000
00000000
00000000
00000000
0003F000
0007F800
000FFC00
001FFE00
003E1F00
003C0F00
003C0F00
003C0F00
003C0F00
003E1F00
001FFE00
000FFC00
0007F800
0003F000
00000000
00000000
03FFFF00
03FFFF80
03FFFFC0
03FFFFE0
000003F0
000001F0
000000F0
000000F0
000000F0
000000F0
00FFFFF0
01FFFFF0
03FFFFF0
07FFFFF0
0FC000F0
0F8000F0
0F0000F0
0F0000F0
0F0000F0
0F0000F0
0F0000F0
0F0000F0
0F8000F0
0FC000F0
07FFFFF0
03FFFFF0
01FFFFF0
00FFFFF0
00000000
00000000
00000000
00000000
00000000
00000000
00000000
00000000
00000000
00000000
00000000
00000000
ENDCHAR
STARTCHAR 0x00E6
ENCODING 230
SWIDTH 698 0
DWIDTH 32 0
BBX 32 64 0 -12
BITMAP
00000000
00000000
00000000
00000000
00000000
00000000
00000000
00000000
00000000
00000000
00000000
00000000
00000000
00000000
00000000
00000000
00000000
00000000
00000000
00000000
00000000
00000000
00000000
00000000
03FF0FFF
03FF9FFF
03FFFFFF
03FFFFFF
0003FC0F
0001F80F
0000F00F
0000F00F
0000F00F
0000F00F
00FFF00F
01FFF00F
03FFFFFF
07FFFFFF
0FC0FFFF
0F80FFFF
0F00F000
0F00F000
0F00F000
0F00F000
0F00F000
0F00F000
0F81F800
0FC3FC00
07FFFFFF
03FFFFFF
01FF9FFF
00FF0FFF
00000000
00000000
00000000
00000000
00000000
00000000
00000000
00000000
00000000
00000000
00000000
00000000
ENDCHAR
STARTCHAR 0x00E7
ENCODING 231
SWIDTH 698 0
DWIDTH 32 0
BBX 32 64 0 -12
BITMAP
00000000
00000000
00000000
00000000
00000000
00000000
00000000
00000000
00000000
00000000
00000000
00000000
00000000
00000000
00000000
00000000
00000000
00000000
00000000
00000000
00000000
00000000
00000000
00000000
00FFFFF0
01FFFFF0
03FFFFF0
07FFFFF0
0FC000F0
0F8000F0
0F0000F0
0F0000F0
0F000000
0F000000
0F000000
0F000000
0F000000
0F000000
0F000000
0F000000
0F000000
0F000000
0F000000
0F000000
0F000000
0F000000
0F800000
0FC00000
07FFFFF0
03FFFFF0
01FFFFF0
00FFFFF0
0000F000
0000F000
0000F000
0000F000
0000F000
0000F000
0001F000
0003F000
000FE000
000FC000
000F8000
000F0000
ENDCHAR
STARTCHAR 0x00E8
ENCODING 232
SWIDTH 698 0
DWIDTH 32 0
BBX 32 64 0 -12
BITMAP
00000000
00000000
00000000
00000000
00000000
00000000
00000000
00000000
00380000
003C0000
003E0000
003F0000
001F8000
000FC000
0007E000
0003F000
0001F800
0000FC00
00007C00
00003C00
00000000
00000000
00000000
00000000
00FFFFF0
01FFFFF0
03FFFFF0
07FFFFF0
0FC000F0
0F8000F0
0F0000F0
0F0000F0
0F0000F0
0F0000F0
0F0000F0
0F0000F0
0FFFFFF0
0FFFFFF0
0FFFFFF0
0FFFFFF0
0F000000
0F000000
0F000000
0F000000
0F000000
0F000000
0F800000
0FC00000
07FFFFF0
03FFFFF0
01FFFFF0
00FFFFF0
00000000
00000000
00000000
00000000
00000000
00000000
00000000
00000000
00000000
00000000
00000000
00000000
ENDCHAR
STARTCHAR 0x00E9
ENCODING 233
SWIDTH 698 0
DWIDTH 32 0
BBX 32 64 0 -12
BITMAP
00000000
00000000
00000000
00000000
00000000
00000000
00000000
00000000
00000700
00000F00
00001F00
00003F00
00007E00
0000FC00
0001F800
0003F000
0007E000
000FC000
000F8000
000F0000
00000000
00000000
00000000
00000000
00FFFFF0
01FFFFF0
03FFFFF0
07FFFFF0
0FC000F0
0F8000F0
0F0000F0
0F0000F0
0F0000F0
0F0000F0
0F0000F0
0F0000F0
0FFFFFF0
0FFFFFF0
0FFFFFF0
0FFFFFF0
0F000000
0F000000
0F000000
0F000000
0F000000
0F000000
0F800000
0FC00000
07FFFFF0
03FFFFF0
01FFFFF0
00FFFFF0
00000000
00000000
00000000
00000000
00000000
00000000
00000000
00000000
00000000
00000000
00000000
00000000
ENDCHAR
STARTCHAR 0x00EA
ENCODING 234
SWIDTH 698 0
DWIDTH 32 0
BBX 32 64 0 -12
BITMAP
00000000
00000000
00000000
00000000
00000000
00000000
00000000
00000000
0003C000
0007E000
000FF000
001FF800
003FFC00
007E7E00
00FC3F00
01F81F80
03F00FC0
03E007C0
03C003C0
038001C0
00000000
00000000
00000000
00000000
00FFFFF0
01FFFFF0
03FFFFF0
07FFFFF0
0FC000F0
0F8000F0
0F0000F0
0F0000F0
0F0000F0
0F0000F0
0F0000F0
0F0000F0
0FFFFFF0
0FFFFFF0
0FFFFFF0
0FFFFFF0
0F000000
0F000000
0F000000
0F000000
0F000000
0F000000
0F800000
0FC00000
07FFFFF0
03FFFFF0
01FFFFF0
00FFFFF0
00000000
00000000
00000000
00000000
00000000
00000000
00000000
00000000
00000000
00000000
00000000
00000000
ENDCHAR
STARTCHAR 0x00EB
ENCODING 235
SWIDTH 698 0
DWIDTH 32 0
BBX 32 64 0 -12
BITMAP
00000000
00000000
00000000
00000000
00000000
00000000
00000000
00000000
00000000
00000000
00000000
00000000
00F00F00
00F00F00
00F00F00
00F00F00
00F00F00
00F00F00
00000000
00000000
00000000
00000000
00000000
00000000
00FFFFF0
01FFFFF0
03FFFFF0
07FFFFF0
0FC000F0
0F8000F0
0F0000F0
0F0000F0
0F0000F0
0F0000F0
0F0000F0
0F0000F0
0FFFFFF0
0FFFFFF0
0FFFFFF0
0FFFFFF0
0F000000
0F000000
0F000000
0F000000
0F000000
0F000000
0F800000
0FC00000
07FFFFF0
03FFFFF0
01FFFFF0
00FFFFF0
00000000
00000000
00000000
00000000
00000000
00000000
00000000
00000000
00000000
00000000
00000000
00000000
ENDCHAR
STARTCHAR 0x00EC
ENCODING 236
SWIDTH 698 0
DWIDTH 32 0
BBX 32 64 0 -12
BITMAP
00000000
00000000
00000000
00000000
00000000
00000000
00000000
00000000
00380000
003C0000
003E0000
003F0000
001F8000
000FC000
0007E000
0003F000
0001F800
0000FC00
00007C00
00003C00
00000000
00000000
00000000
00000000
0003C000
0003C000
0003C000
0003C000
0003C000
0003C000
0003C000
0003C000
0003C000
0003C000
0003C000
0003C000
0003C000
0003C000
0003C000
0003C000
0003C000
0003C000
0003C000
0003C000
0003C000
0003C000
0003C000
0003C000
0003C000
0003C000
0003C000
0003C000
00000000
00000000
00000000
00000000
00000000
00000000
00000000
00000000
00000000
00000000
00000000
00000000
ENDCHAR
STARTCHAR 0x00ED
ENCODING 237
SWIDTH 698 0
DWIDTH 32 0
BBX 32 64 0 -12
BITMAP
00000000
00000000
00000000
00000000
00000000
00000000
00000000
00000000
00001C00
00003C00
00007C00
0000FC00
0001F800
0003F000
0007E000
000FC000
001F8000
003F0000
003E0000
003C0000
00000000
00000000
00000000
00000000
0003C000
0003C000
0003C000
0003C000
0003C000
0003C000
0003C000
0003C000
0003C000
0003C000
0003C000
0003C000
0003C000
0003C000
0003C000
0003C000
0003C000
0003C000
0003C000
0003C000
0003C000
0003C000
0003C000
0003C000
0003C000
0003C000
0003C000
0003C000
00000000
00000000
00000000
00000000
00000000
00000000
00000000
00000000
00000000
00000000
00000000
00000000
ENDCHAR
STARTCHAR 0x00EE
ENCODING 238
SWIDTH 698 0
DWIDTH 32 0
BBX 32 64 0 -12
BITMAP
00000000
00000000
00000000
00000000
00000000
00000000
00000000
00000000
0003C000
0007E000
000FF000
001FF800
003FFC00
007E7E00
00FC3F00
01F81F80
03F00FC0
03E007C0
03C003C0
038001C0
00000000
00000000
00000000
00000000
0003C000
0003C000
0003C000
0003C000
0003C000
0003C000
0003C000
0003C000
0003C000
0003C000
0003C000
0003C000
0003C000
0003C000
0003C000
0003C000
0003C000
0003C000
0003C000
0003C000
0003C000
0003C000
0003C000
0003C000
0003C000
0003C000
0003C000
0003C000
00000000
00000000
00000000
00000000
00000000
00000000
00000000
00000000
00000000
00000000
00000000
00000000
ENDCHAR
STARTCHAR 0x00EF
ENCODING 239
SWIDTH 698 0
DWIDTH 32 0
BBX 32 64 0 -12
BITMAP
00000000
00000000
00000000
00000000
00000000
00000000
00000000
00000000
00000000
00000000
00000000
00000000
00F00F00
00F00F00
00F00F00
00F00F00
00F00F00
00F00F00
00000000
00000000
00000000
00000000
00000000
00000000
0003C000
0003C000
0003C000
0003C000
0003C000
0003C000
0003C000
0003C000
0003C000
0003C000
0003C000
0003C000
0003C000
0003C000
0003C000
0003C000
0003C000
0003C000
0003C000
0003C000
0003C000
0003C000
0003C000
0003C000
0003C000
0003C000
0003C000
0003C000
00000000
00000000
00000000
00000000
00000000
00000000
00000000
00000000
00000000
00000000
00000000
00000000
ENDCHAR
STARTCHAR 0x00F0
ENCODING 240
SWIDTH 698 0
DWIDTH 32 0
BBX 32 64 0 -12
BITMAP
00000000
00000000
00000000
00000000
00000000
00000000
00000000
00000000
00000000
00000000
03C3C000
03E7C000
03FFC000
01FF8000
00FF0000
007E0000
00FF0000
01FF8000
03FFC000
03F7E000
03E3F000
03C1F800
0000FC00
00007E00
00FFFF00
01FFFF80
03FFFFC0
07FFFFE0
0FC003F0
0F8001F0
0F0000F0
0F0000F0
0F0000F0
0F0000F0
0F0000F0
0F0000F0
0F0000F0
0F0000F0
0F0000F0
0F0000F0
0F0000F0
0F0000F0
0F0000F0
0F0000F0
0F0000F0
0F0000F0
0F8001F0
0FC003F0
07FFFFE0
03FFFFC0
01FFFF80
00FFFF00
00000000
00000000
00000000
00000000
00000000
00000000
00000000
00000000
00000000
00000000
00000000
00000000
ENDCHAR
STARTCHAR 0x00F1
ENCODING 241
SWIDTH 698 0
DWIDTH 32 0
BBX 32 64 0 -12
BITMAP
00000000
00000000
00000000
00000000
00000000
00000000
00000000
00000000
00FC00F0
01FE00F0
03FF00F0
07FF80F0
0FCFC1F0
0F87E3F0
0F03FFE0
0F01FFC0
0F00FF80
0F007F00
00000000
00000000
00000000
00000000
00000000
00000000
00FFFFF0
01FFFFF0
03FFFFF0
07FFFFF0
0FC000F0
0F8000F0
0F0000F0
0F0000F0
0F0000F0
0F0000F0
0F0000F0
0F0000F0
0F0000F0
0F0000F0
0F0000F0
0F0000F0
0F0000F0
0F0000F0
0F0000F0
0F0000F0
0F0000F0
0F0000F0
0F0000F0
0F0000F0
0F0000F0
0F0000F0
0F0000F0
0F0000F0
00000000
00000000
00000000
00000000
00000000
00000000
00000000
00000000
00000000
00000000
00000000
00000000
ENDCHAR
STARTCHAR 0x00F2
ENCODING 242
SWIDTH 698 0
DWIDTH 32 0
BBX 32 64 0 -12
BITMAP
00000000
00000000
00000000
00000000
00000000
00000000
00000000
00000000
00380000
003C0000
003E0000
003F0000
001F8000
000FC000
0007E000
0003F000
0001F800
0000FC00
00007C00
00003C00
00000000
00000000
00000000
00000000
00FFFF00
01FFFF80
03FFFFC0
07FFFFE0
0FC003F0
0F8001F0
0F0000F0
0F0000F0
0F0000F0
0F0000F0
0F0000F0
0F0000F0
0F0000F0
0F0000F0
0F0000F0
0F0000F0
0F0000F0
0F0000F0
0F0000F0
0F0000F0
0F0000F0
0F0000F0
0F8001F0
0FC003F0
07FFFFE0
03FFFFC0
01FFFF80
00FFFF00
00000000
00000000
00000000
00000000
00000000
00000000
00000000
00000000
00000000
00000000
00000000
00000000
ENDCHAR
STARTCHAR 0x00F3
ENCODING 243
SWIDTH 698 0
DWIDTH 32 0
BBX 32 64 0 -12
BITMAP
00000000
00000000
00000000
00000000
00000000
00000000
00000000
00000000
00001C00
00003C00
00007C00
0000FC00
0001F800
0003F000
0007E000
000FC000
001F8000
003F0000
003E0000
003C0000
00000000
00000000
00000000
00000000
00FFFF00
01FFFF80
03FFFFC0
07FFFFE0
0FC003F0
0F8001F0
0F0000F0
0F0000F0
0F0000F0
0F0000F0
0F0000F0
0F0000F0
0F0000F0
0F0000F0
0F0000F0
0F0000F0
0F0000F0
0F0000F0
0F0000F0
0F0000F0
0F0000F0
0F0000F0
0F8001F0
0FC003F0
07FFFFE0
03FFFFC0
01FFFF80
00FFFF00
00000000
00000000
00000000
00000000
00000000
00000000
00000000
00000000
00000000
00000000
00000000
00000000
ENDCHAR
STARTCHAR 0x00F4
ENCODING 244
SWIDTH 698 0
DWIDTH 32 0
BBX 32 64 0 -12
BITMAP
00000000
00000000
00000000
00000000
00000000
00000000
00000000
00000000
0003C000
0007E000
000FF000
001FF800
003FFC00
007E7E00
00FC3F00
01F81F80
03F00FC0
03E007C0
03C003C0
038001C0
00000000
00000000
00000000
00000000
00FFFF00
01FFFF80
03FFFFC0
07FFFFE0
0FC003F0
0F8001F0
0F0000F0
0F0000F0
0F0000F0
0F0000F0
0F0000F0
0F0000F0
0F0000F0
0F0000F0
0F0000F0
0F0000F0
0F0000F0
0F0000F0
0F0000F0
0F0000F0
0F0000F0
0F0000F0
0F8001F0
0FC003F0
07FFFFE0
03FFFFC0
01FFFF80
00FFFF00
00000000
00000000
00000000
00000000
00000000
00000000
00000000
00000000
00000000
00000000
00000000
00000000
ENDCHAR
STARTCHAR 0x00F5
ENCODING 245
SWIDTH 698 0
DWIDTH 32 0
BBX 32 64 0 -12
BITMAP
00000000
00000000
00000000
00000000
00000000
00000000
00000000
00000000
01F801E0
03FC01E0
07FE01E0
0FFF01E0
1F9F83E0
1F0FC7E0
1E07FFC0
1E03FF80
1E01FF00
1E00FE00
00000000
00000000
00000000
00000000
00000000
00000000
00FFFF00
01FFFF80
03FFFFC0
07FFFFE0
0FC003F0
0F8001F0
0F0000F0
0F0000F0
0F0000F0
0F0000F0
0F0000F0
0F0000F0
0F0000F0
0F0000F0
0F0000F0
0F0000F0
0F0000F0
0F0000F0
0F0000F0
0F0000F0
0F0000F0
0F0000F0
0F8001F0
0FC003F0
07FFFFE0
03FFFFC0
01FFFF80
00FFFF00
00000000
00000000
00000000
00000000
00000000
00000000
00000000
00000000
00000000
00000000
00000000
00000000
ENDCHAR
STARTCHAR 0x00F6
ENCODING 246
SWIDTH 698 0
DWIDTH 32 0
BBX 32 64 0 -12
BITMAP
00000000
00000000
00000000
00000000
00000000
00000000
00000000
00000000
00000000
00000000
00000000
00000000
00F00F00
00F00F00
00F00F00
00F00F00
00F00F00
00F00F00
00000000
00000000
00000000
00000000
00000000
00000000
00FFFF00
01FFFF80
03FFFFC0
07FFFFE0
0FC003F0
0F8001F0
0F0000F0
0F0000F0
0F0000F0
0F0000F0
0F0000F0
0F0000F0
0F0000F0
0F0000F0
0F0000F0
0F0000F0
0F0000F0
0F0000F0
0F0000F0
0F0000F0
0F0000F0
0F0000F0
0F8001F0
0FC003F0
07FFFFE0
03FFFFC0
01FFFF80
00FFFF00
00000000
00000000
00000000
00000000
00000000
00000000
00000000
00000000
00000000
00000000
00000000
00000000
ENDCHAR
STARTCHAR 0x00F7
ENCODING 247
SWIDTH 698 0
DWIDTH 32 0
BBX 32 64 0 -12
BITMAP
00000000
00000000
00000000
00000000
00000000
00000000
00000000
00000000
00000000
00000000
00000000
00000000
00000000
00000000
00000000
00000000
00000000
00000000
00000000
00000000
00000000
00000000
0003C000
0003C000
0003C000
0003C000
0003C000
0003C000
00000000
00000000
00000000
00000000
03FFFFC0
03FFFFC0
03FFFFC0
03FFFFC0
00000000
00000000
00000000
00000000
0003C000
0003C000
0003C000
0003C000
0003C000
0003C000
00000000
00000000
00000000
00000000
00000000
00000000
00000000
00000000
00000000
00000000
00000000
00000000
00000000
00000000
00000000
00000000
00000000
00000000
ENDCHAR
STARTCHAR 0x00F8
ENCODING 248
SWIDTH 698 0
DWIDTH 32 0
BBX 32 64 0 -12
BITMAP
00000000
00000000
00000000
00000000
00000000
00000000
00000000
00000000
00000000
00000000
00000000
00000000
00000000
00000000
00000000
00000000
00000000
00000000
00000000
00000000
00000000
00000000
00000000
00000000
00FFFF1C
01FFFFBC
03FFFFFC
07FFFFF8
0FC003F0
0F8003F0
0F0007F0
0F000FF0
0F001FF0
0F003FF0
0F007EF0
0F00FCF0
0F01F8F0
0F03F0F0
0F07E0F0
0F0FC0F0
0F1F80F0
0F3F00F0
0F7E00F0
0FFC00F0
0FF800F0
0FF000F0
0FE001F0
0FC003F0
1FFFFFE0
3FFFFFC0
3DFFFF80
38FFFF00
00000000
00000000
00000000
00000000
00000000
00000000
00000000
00000000
00000000
00000000
00000000
00000000
ENDCHAR
STARTCHAR 0x00F9
ENCODING 249
SWIDTH 698 0
DWIDTH 32 0
BBX 32 64 0 -12
BITMAP
00000000
00000000
00000000
00000000
00000000
00000000
00000000
00000000
00380000
003C0000
003E0000
003F0000
001F8000
000FC000
0007E000
0003F000
0001F800
0000FC00
00007C00
00003C00
00000000
00000000
00000000
00000000
0F0000F0
0F0000F0
0F0000F0
0F0000F0
0F0000F0
0F0000F0
0F0000F0
0F0000F0
0F0000F0
0F0000F0
0F0000F0
0F0000F0
0F0000F0
0F0000F0
0F0000F0
0F0000F0
0F0000F0
0F0000F0
0F0000F0
0F0000F0
0F0000F0
0F0000F0
0F8000F0
0FC000F0
07FFFFF0
03FFFFF0
01FFFFF0
00FFFFF0
00000000
00000000
00000000
00000000
00000000
00000000
00000000
00000000
00000000
00000000
00000000
00000000
ENDCHAR
STARTCHAR 0x00FA
ENCODING 250
SWIDTH 698 0
DWIDTH 32 0
BBX 32 64 0 -12
BITMAP
00000000
00000000
00000000
00000000
00000000
00000000
00000000
00000000
00001C00
00003C00
00007C00
0000FC00
0001F800
0003F000
0007E000
000FC000
001F8000
003F0000
003E0000
003C0000
00000000
00000000
00000000
00000000
0F0000F0
0F0000F0
0F0000F0
0F0000F0
0F0000F0
0F0000F0
0F0000F0
0F0000F0
0F0000F0
0F0000F0
0F0000F0
0F0000F0
0F0000F0
0F0000F0
0F0000F0
0F0000F0
0F0000F0
0F0000F0
0F0000F0
0F0000F0
0F0000F0
0F0000F0
0F8000F0
0FC000F0
07FFFFF0
03FFFFF0
01FFFFF0
00FFFFF0
00000000
00000000
00000000
00000000
00000000
00000000
00000000
00000000
00000000
00000000
00000000
00000000
ENDCHAR
STARTCHAR 0x00FB
ENCODING 251
SWIDTH 698 0
DWIDTH 32 0
BBX 32 64 0 -12
BITMAP
00000000
00000000
00000000
00000000
00000000
00000000
00000000
00000000
0003C000
0007E000
000FF000
001FF800
003FFC00
007E7E00
00FC3F00
01F81F80
03F00FC0
03E007C0
03C003C0
038001C0
00000000
00000000
00000000
00000000
0F0000F0
0F0000F0
0F0000F0
0F0000F0
0F0000F0
0F0000F0
0F0000F0
0F0000F0
0F0000F0
0F0000F0
0F0000F0
0F0000F0
0F0000F0
0F0000F0
0F0000F0
0F0000F0
0F0000F0
0F0000F0
0F0000F0
0F0000F0
0F0000F0
0F0000F0
0F8000F0
0FC000F0
07FFFFF0
03FFFFF0
01FFFFF0
00FFFFF0
00000000
00000000
00000000
00000000
00000000
00000000
00000000
00000000
00000000
00000000
00000000
00000000
ENDCHAR
STARTCHAR 0x00FC
ENCODING 252
SWIDTH 698 0
DWIDTH 32 0
BBX 32 64 0 -12
BITMAP
00000000
00000000
00000000
00000000
00000000
00000000
00000000
00000000
00000000
00000000
00000000
00000000
00F00F00
00F00F00
00F00F00
00F00F00
00F00F00
00F00F00
00000000
00000000
00000000
00000000
00000000
00000000
0F0000F0
0F0000F0
0F0000F0
0F0000F0
0F0000F0
0F0000F0
0F0000F0
0F0000F0
0F0000F0
0F0000F0
0F0000F0
0F0000F0
0F0000F0
0F0000F0
0F0000F0
0F0000F0
0F0000F0
0F0000F0
0F0000F0
0F0000F0
0F0000F0
0F0000F0
0F8000F0
0FC000F0
07FFFFF0
03FFFFF0
01FFFFF0
00FFFFF0
00000000
00000000
00000000
00000000
00000000
00000000
00000000
00000000
00000000
00000000
00000000
00000000
ENDCHAR
STARTCHAR 0x00FD
ENCODING 253
SWIDTH 698 0
DWIDTH 32 0
BBX 32 64 0 -12
BITMAP
00000000
00000000
00000000
00000000
00000000
00000000
00000000
00000000
00001C00
00003C00
00007C00
0000FC00
0001F800
0003F000
0007E000
000FC000
001F8000
003F0000
003E0000
003C0000
00000000
00000000
00000000
00000000
0F0000F0
0F0000F0
0F0000F0
0F0000F0
0F0000F0
0F0000F0
0F0000F0
0F0000F0
0F0000F0
0F0000F0
0F0000F0
0F0000F0
0F0000F0
0F0000F0
0F0000F0
0F0000F0
0F0000F0
0F0000F0
0F0000F0
0F0000F0
0F0000F0
0F0000F0
0F8000F0
0FC000F0
07FFFFF0
03FFFFF0
01FFFFF0
00FFFFF0
000000F0
000000F0
000000F0
000000F0
000000F0
000000F0
000001F0
000003F0
0FFFFFE0
0FFFFFC0
0FFFFF80
0FFFFF00
ENDCHAR
STARTCHAR 0x00FE
ENCODING 254
SWIDTH 698 0
DWIDTH 32 0
BBX 32 64 0 -12
BITMAP
00000000
00000000
00000000
00000000
00000000
00000000
00000000
00000000
00000000
00000000
00000000
00000000
0F000000
0F000000
0F000000
0F000000
0F000000
0F000000
0F000000
0F000000
0F000000
0F000000
0F000000
0F000000
0FFFFF00
0FFFFF80
0FFFFFC0
0FFFFFE0
0F0003F0
0F0001F0
0F0000F0
0F0000F0
0F0000F0
0F0000F0
0F0000F0
0F0000F0
0F0000F0
0F0000F0
0F0000F0
0F0000F0
0F0000F0
0F0000F0
0F0000F0
0F0000F0
0F0000F0
0F0000F0
0F0001F0
0F0003F0
0FFFFFE0
0FFFFFC0
0FFFFF80
0FFFFF00
0F000000
0F000000
0F000000
0F000000
0F000000
0F000000
0F000000
0F000000
0F000000
0F000000
0F000000
0F000000
ENDCHAR
STARTCHAR 0x00FF
ENCODING 255
SWIDTH 698 0
DWIDTH 32 0
BBX 32 64 0 -12
BITMAP
00000000
00000000
00000000
00000000
00000000
00000000
00000000
00000000
00000000
00000000
00000000
00000000
00F00F00
00F00F00
00F00F00
00F00F00
00F00F00
00F00F00
00000000
00000000
00000000
00000000
00000000
00000000
0F0000F0
0F0000F0
0F0000F0
0F0000F0
0F0000F0
0F0000F0
0F0000F0
0F0000F0
0F0000F0
0F0000F0
0F0000F0
0F0000F0
0F0000F0
0F0000F0
0F0000F0
0F0000F0
0F0000F0
0F0000F0
0F0000F0
0F0000F0
0F0000F0
0F0000F0
0F8000F0
0FC000F0
07FFFFF0
03FFFFF0
01FFFFF0
00FFFFF0
000000F0
000000F0
000000F0
000000F0
000000F0
000000F0
000001F0
000003F0
0FFFFFE0
0FFFFFC0
0FFFFF80
0FFFFF00
ENDCHAR
ENDFONT
